<svg width="1677" height="672" fill="none" xmlns="http://www.w3.org/2000/svg"><path d="M1696.11 544.497l-29.23 6.26v-287.47l29.23-6.26v287.47z" fill="#A27C6D"/><path d="M1638.4 544.497l29.32 6.26v-287.47l-29.32-6.26v287.47z" fill="#987263"/><path d="M833.628 430.637l-394.847 83.657V231.537l394.847-83.692v282.792z" fill="#A27C6D"/><path d="M1140.32 443.468L447.868 296.551l511.661-108.562 692.461 146.882-511.67 108.597z" fill="#D1B9A4"/><path d="M945.103 191.05l5.62-1.204 692.647 146.848-5.62 1.204L945.103 191.05zm655.457 154.725L907.913 198.928l5.715-1.204 692.642 146.847-5.71 1.204zm-61.92 13.141L845.993 212.068l5.621-1.17 692.646 146.848-5.62 1.17zm-95.74 20.329L750.256 232.397l5.62-1.204 692.644 146.848-5.62 1.204zm28.2-5.985L778.452 226.412l5.621-1.204 692.647 146.848-5.62 1.204zm-95.74 20.33L682.715 246.742l5.621-1.204 692.644 146.848-5.62 1.204zm-33.82 7.155L648.898 253.897l5.62-1.17 692.642 146.848-5.62 1.17zm-62.01 13.174L586.884 267.071l5.714-1.204 692.642 146.848-5.71 1.204zm-75.41 15.996L511.474 283.067l5.621-1.204 692.645 146.848-5.62 1.204zm24.73-5.263L536.205 277.804l5.62-1.17 692.735 146.814-5.71 1.204zm-37.1 7.911L499.015 285.715l5.714-1.204 692.641 146.848-5.62 1.204zm-11.33 2.374L487.774 288.089l5.621-1.204 692.645 146.848-5.62 1.204zm-34.85 7.395L452.833 295.519l5.714-1.204 692.643 146.848-5.62 1.169zm428.38-90.881L881.309 204.603l9.368-1.995 692.643 146.814-9.37 2.029zm-58.26 12.349L823.042 216.952l9.462-1.995 692.646 146.848-9.46 1.995zm-120.1 25.49L702.949 242.442l9.461-1.995 692.64 146.848-9.46 1.995zm-74.56 15.823L628.382 258.265l14.708-3.13 692.64 146.848-14.7 3.13zm-67.45 14.31L560.935 272.575l14.707-3.13 692.648 146.848-14.71 3.13z" fill="#C7AB93"/><path d="M1168.15 656.705L1138.92 663V375.53l29.23-6.295v287.47z" fill="#A27C6D"/><path d="M1110.54 656.705l29.22 6.295V375.53l-29.22-6.295v287.47z" fill="#987263"/><path d="M1745.76 271.887L1165.9 394.828v-14.241l579.86-122.975v14.275z" fill="#8D6959"/><path d="M.937 134.017L1209.65 390.253v-18.816L.937 115.201v18.816z" fill="#C7AB93"/><path d="M44.684 157.133L1165.9 394.828V381L44.684 143.305v13.828z" fill="#987263"/><path d="M44.028 430.637l394.753 83.657V231.537L44.028 147.845v282.792z" fill="#987263"/><path d="M57.05 417.325l368.71 78.153V244.815L57.05 166.662v250.663z" fill="#C7AB93"/><path d="M57.05 233.911l368.71 78.154v-5.091L57.05 228.82v5.091zm0 61.814l368.71 78.189v-5.126L57.05 290.634v5.091z" fill="#987263"/><path d="M425.76 254.034L57.05 175.88v-2.407l368.71 78.153v2.408zm0 13.381L57.05 189.261v-2.407l368.71 78.153v2.408zm0 6.674L57.05 195.935v-2.374l368.71 78.154v2.374zm0 15.789L57.05 211.724v-2.408l368.71 78.154v2.408zm0 26.28L57.05 238.004v-2.408l368.71 78.154v2.408zm0 40.591L57.05 278.595v-2.374l368.71 78.154v2.374zm0-11.937L57.05 266.658v-2.373l368.71 78.154v2.373zm0 40.625L57.05 307.283v-2.408l368.71 78.154v2.408zm0 14.344L57.05 321.628v-2.408l368.71 78.153v2.408zm0 26.281L57.05 347.908V345.5l368.71 78.154v2.408zm0 31.991L57.05 379.899v-2.374l368.71 78.154v2.374zm0-10.492L57.05 369.407v-2.408l368.71 78.154v2.408zm0 15.755L57.05 385.162v-2.374l368.71 78.154v2.374zm0 4.781L57.05 389.943v-2.373l368.71 78.154v2.373zm0 24.836L57.05 414.779v-2.373l368.71 78.153v2.374zm0-10.01L57.05 404.769v-2.408l368.71 78.154v2.408zm0-181.728L57.05 223.007v-3.991l368.71 78.154v4.025zm0 24.698L57.05 247.739v-4.024l368.71 78.153v4.025zm0 50.944L57.05 298.684v-4.025l368.71 78.188v3.99zm0 31.647L57.05 330.33v-6.26l368.71 78.154v6.26zm0 28.585L57.05 358.916v-6.261l368.71 78.188v6.226z" fill="#BCA08B"/><path d="M57.05 357.574l368.71 78.154v-5.125L57.05 352.449v5.125zm121.029-149.737l126.651 26.831v-8.738l-126.651-26.865v8.772zm0 67.696l126.651 26.831v-8.737l-126.651-26.865v8.771zm0 63.294l126.651 26.865v-8.771l-126.651-26.866v8.772zm0 60.782L304.73 426.44v-8.737l-126.651-26.865v8.771z" fill="#987263"/><path d="M1210.96 371.953L0 115.236 542.95 0l1210.96 256.717-542.95 115.236z" fill="#EAD6C5"/><path d="M1753.72 274.88l-544.36 115.201.29-18.3L1754 256.58l-.28 18.3z" fill="#E3CFBA"/><path d="M1110.54 436.829v7.946L448.055 304.291v-7.946l662.485 140.484z" fill="#C7AB93"/><path d="M1168.15 436.519L1651.8 334.08v8.221l-483.65 102.405v-8.187z" fill="#E3CFBA"/><path d="M542.294.138L1753.25 256.855l-5.62 1.204L536.673 1.342l5.621-1.204zm-15.738 3.336L1737.51 260.226l-5.71 1.169L520.842 4.678l5.714-1.204zm-37.19 7.912L1700.32 268.103l-5.62 1.204L483.746 12.555l5.62-1.169zm-62.013 13.14L1638.4 281.244l-5.71 1.203L421.732 25.696l5.621-1.17zm-95.738 20.33L1542.67 301.573l-5.62 1.204L325.995 46.026l5.62-1.17zm28.197-5.986L1570.77 295.589l-5.62 1.204L354.191 40.04l5.621-1.17zm-95.738 20.296L1475.03 315.917l-5.62 1.204L258.454 60.37l5.62-1.204zm-33.817 7.189L1441.31 323.072l-5.72 1.204L224.636 67.559l5.621-1.204zm-61.92 13.14L1379.29 336.247l-5.62 1.17L162.716 80.699l5.621-1.204zm-75.41 16.03L1303.88 352.242l-5.62 1.204L87.213 96.729l5.714-1.204zm24.731-5.263L1328.61 346.98l-5.62 1.204L112.037 91.466l5.621-1.204zm-37.19 7.878L1291.43 354.89l-5.63 1.204L74.848 99.343l5.62-1.204zm-11.241 2.407L1280.18 357.265l-5.62 1.204L63.606 101.717l5.62-1.17zM10.68 112.965l1210.96 256.752-5.62 1.169L5.059 114.169l5.62-1.204zm23.605-5.022L1245.34 364.695l-5.72 1.169L28.665 109.147l5.62-1.204zm432.224-91.707L1677.47 272.953l-9.47 1.996L457.048 18.231l9.461-1.995zm-58.267 12.349L1619.2 285.303l-9.37 2.029L398.781 30.58l9.461-1.995zm-120.093 25.49L1499.11 310.792l-9.37 2.03L278.688 56.07l9.461-1.995zm-69.32 14.722L1429.88 325.515l-14.8 3.13L204.121 71.893l14.708-3.096zm-67.354 14.276L1362.43 339.824l-14.71 3.131L136.674 86.203l14.801-3.13z" fill="#DDC9B8"/><path style="mix-blend-mode:overlay" opacity=".2" d="M.937 134.155c0-.619.562-18.472-.937-18.782L542.95 0 1754 256.683v18.3l-57.7 12.211V544.6l-28.11 6.088v.172h-.47v-.172l-28.1-6.088V345.087l-470.26 99.757v211.999l-28.1 6.088-28.1-6.088V444.775l-276.909-58.719v44.719l-394.847 83.726-394.753-83.726c0-.413 0-282.861.656-282.654v-4.816l-46.37-9.15zM1561.31 315.642l77.09 16.34v-32.714l-77.09 16.374z" fill="url(#paint0_linear_33_81)"/><g filter="url(#filter0_d_33_81)"><path d="M825.512 107.554l117.643 39.412 3.867 4.723 9.634-.958 128.224 29.056-.55 4.4-120.154 117.789-6.696 2.693-119.751-37.348-3.613-3.451-9.897-.3-126.102-31.123.546-4.411 120.153-117.789 6.696-2.693z" fill="#256277"/><path d="M824.629 104.124l117.643 39.412 3.864 4.712 9.638-.947 128.216 29.044-.54 4.412-120.159 117.777-6.696 2.693-119.749-37.336-.988-4.127-12.524.365-126.103-31.123.546-4.412 120.156-117.777 6.696-2.693z" fill="#5599BF"/><path d="M697.231 229.006l.546-4.412 116.098-113.8 40.842 158.671-17.871-5.574-.988-4.127-12.524.365-126.103-31.123zm287.531-75.139l99.228 22.478-.54 4.412-73.28 71.827-25.408-98.717z" fill="#72BBDB"/><path d="M701.453 230.054L823.947 112.73l118.325 30.806 3.864 4.712 9.638-.947 115.316 34.981-119.603 117.364-114.641-35.755-.988-4.127-12.524.365-121.881-30.075z" fill="#3C809E"/><path d="M943.46 151.489c-13.44-37.148-61.847-45.576-118.322-39.237L708.14 226.946l130.223 28.197L943.46 151.489z" fill="#FFF7D2"/><path opacity=".5" d="M725.227 225.138l109.631-113.842-9.72.956L708.14 226.946l17.087-1.808zm125.616-5.63c36.684-25.813 66.774-54.163 86.516-79.849a51.258 51.258 0 016.101 11.83L838.363 255.143l-33.095-7.165a482.973 482.973 0 0045.575-28.47z" fill="#EFD0A3"/><path d="M942.504 151.208c18.199-24.001 63.166-10.491 117.256 21.606 3.82 2.564 7.13 5.358 11.04 7.847L953.83 295.349l-113.543-52.997 102.217-91.144z" fill="#FFF7D2"/><path opacity=".5" d="M934.11 286.165l125.66-113.34 11.03 7.836-117.005 114.697-19.685-9.193z" fill="#EFD0A3"/><path d="M708.141 226.946l.83-.827c54.828-6.013 113.362-13.226 127.538 21.537 12.029-26.18 59.32 11.386 116.179 47.312L837.324 254.92l-129.183-27.974z" fill="#E2BE8D"/><path d="M830.735 253.118c-.859-3.337 1.154-5.291 4.494-4.335a12.112 12.112 0 017.59 7.791c.862 3.349-1.154 5.292-4.491 4.346a12.146 12.146 0 01-7.593-7.802z" fill="#3C809E"/><path d="M941.065 286.338l38.036-35.439-35.484 37.58-2.552-2.141zm52.534-46.35l69.491-64.877 3.44 1.374-72.931 63.503zM963.716 276.2l23.325-28.167 32.809-24.043-56.134 52.21z" fill="#FFF7D2"/><path d="M934.51 291.105s-50.735-24.149-62.662-27.375c-17.374-4.695-17.133-4.573-29.643-6.728l92.305 34.103zm-94.352-34.472s-51.315-15.484-63.59-17.012c-17.853-2.216-46.603-8.953-59.254-9.366l122.844 26.378z" fill="#3C809E"/><path d="M832.621 253.627c-.588.004-1.213.055-1.732.09l-.154-.598c-.859-3.338 1.154-5.292 4.494-4.336a12.24 12.24 0 017.178 6.62 22.336 22.336 0 00-9.786-1.776z" fill="#256277"/><path d="M845.08 250.101s18.084-1.513 50.608 16.93c0 0-31.337-23.94-50.608-16.93zm38.405 4.62l25.897 17.682 20.323 10.907-46.22-28.589zm-55.871-9.77s-11.051-22.191-67.856-18.847c0 0 46.416-.645 67.856 18.847zm-54.303-14.31l-39.817-.759-7.637-2.059 47.454 2.818z" fill="#C99D67"/><path opacity=".5" d="M933.104 283.257l101.156-93.338-105.795 91.243 4.639 2.095z" fill="#EFD0A3"/></g><defs><linearGradient id="paint0_linear_33_81" x1="1294.7" y1="39.627" x2="1137.38" y2="797.818" gradientUnits="userSpaceOnUse"><stop stop-color="#FFD7B7"/><stop offset="1" stop-color="#6C001B"/></linearGradient><filter id="filter0_d_33_81" x="671" y="46" width="440.109" height="324.793" filterUnits="userSpaceOnUse" color-interpolation-filters="sRGB"><feFlood flood-opacity="0" result="BackgroundImageFix"/><feColorMatrix in="SourceAlpha" values="0 0 0 0 0 0 0 0 0 0 0 0 0 0 0 0 0 0 127 0" result="hardAlpha"/><feOffset dy="4"/><feGaussianBlur stdDeviation="2"/><feComposite in2="hardAlpha" operator="out"/><feColorMatrix values="0 0 0 0 0 0 0 0 0 0 0 0 0 0 0 0 0 0 0.25 0"/><feBlend in2="BackgroundImageFix" result="effect1_dropShadow_33_81"/><feBlend in="SourceGraphic" in2="effect1_dropShadow_33_81" result="shape"/></filter></defs></svg>