<svg xmlns="http://www.w3.org/2000/svg" viewBox="0 0 81.93 87.36"><defs><style>.cls-9{fill:#fff;mix-blend-mode:overlay}.cls-5{fill:#fff1da}.cls-6{fill:#e5d5bd}.cls-9{opacity:.5}</style></defs><g style="isolation:isolate"><g id="Слой_2" data-name="Слой 2"><g id="Objects"><path d="M23.73 2.48v84.87H20L3.71 85.86V0H20l2.78 1.11a1.48 1.48 0 01.95 1.37z" fill="#cc6916"/><path d="M2 0h18v87.36H0V2a2 2 0 012-2z" fill="#fc891f"/><path style="mix-blend-mode:overlay" opacity=".2" fill="#fff" d="M17.87 0h1.44v87.36h-1.44z"/><path class="cls-5" d="M0 3.4h20.03v2.35H0z"/><path class="cls-6" d="M23.73 4.88v2.35l-3.71-1.48V3.4l3.71 1.48z"/><path class="cls-5" d="M0 8.31h20.03v2.35H0z"/><path class="cls-6" d="M23.73 9.79v2.35l-3.71-1.48V8.31l3.71 1.48z"/><path d="M39.44 25.85v61.5h-2.69l-11.83-1.07V24.05h11.83l2 .81a1.07 1.07 0 01.69.99z" fill="#51b7b7"/><path d="M24.21 24.05h12.54v63.31H22.24V26a2 2 0 011.97-1.95z" fill="#67d6df"/><path class="cls-9" d="M35.19 24.05h1.04v63.31h-1.04z"/><path class="cls-5" d="M22.24 26.51h14.51v1.7H22.24z"/><path class="cls-6" d="M39.44 27.59v1.7l-2.69-1.07v-1.71l2.69 1.08z"/><path class="cls-5" d="M22.24 30.07h14.51v1.7H22.24z"/><path class="cls-6" d="M39.44 31.15v1.7l-2.69-1.07v-1.71l2.69 1.08z"/><path d="M58.07 10l6.08 75.63-3.3.27-14.65-.14-6.15-76.51 14.54-1.17 2.56.8a1.32 1.32 0 01.92 1.12z" fill="#eabe1f"/><path d="M41.82 8.68h15.93v78.09h-17.9V10.65a2 2 0 012-2z" transform="matrix(1 -.08 .08 1 -3.67 4.07)" fill="#ffe12b"/><path class="cls-9" transform="rotate(-4.6 56.46 47.156)" d="M55.79 8.06h1.28v78.09h-1.28z"/><path d="M81.93 20.51v66.84H79l-12.84-1.17V18.56H79l2.2.88a1.14 1.14 0 01.73 1.07z" fill="#5e4d4a"/><path d="M65.22 18.56H79v68.8H63.24V20.54a2 2 0 011.98-1.98z" fill="#6e5c58"/><path class="cls-9" d="M77.32 18.56h1.13v68.8h-1.13z"/></g></g></g></svg>