<svg xmlns="http://www.w3.org/2000/svg" viewBox="0 0 335.43 422.61"><defs><style>.cls-23,.cls-6{mix-blend-mode:multiply}.cls-3{fill:#827cbb}.cls-4{fill:#5c53a2}.cls-6{fill:#b89692}.cls-23,.cls-6{opacity:.5}.cls-7{fill:#faebd9}.cls-23{fill:#88adc7}.cls-14{fill:#ed7566}.cls-16{fill:#f1e0cc}.cls-17{fill:#5f9ca4}.cls-26{fill:#fff}.cls-33{fill:#41687e}.cls-40{fill:#b9c3ac}.cls-45{fill:#cf6579}</style></defs><g style="isolation:isolate"><g id="Слой_2" data-name="Слой 2"><g id="OBJECTS"><path style="mix-blend-mode:multiply" fill="#e8dedc" opacity=".66" d="M237.92 408.63l-40.27 13.98L0 385.18l88.12-31.5 149.8 54.95z"/><path class="cls-3" d="M50.3 310.66l105.44-43.12 179.69 33.91-98.78 44.95L50.3 310.66z"/><path class="cls-4" d="M91.74 307.13l65.1-28.2 138.07 25.99L232.95 334 91.74 307.13z"/><path d="M335.43 301.45l-.19 3.92-3.24 1.78 1.26 52.37 1.7-.77-.11 3.71-96.91 46.17s-10.83-2.95-11.47-11.52c-.89-12.13 10.21-50.71 10.21-50.71z" fill="#6f67bb"/><path class="cls-6" d="M50.3 310.66l105.44-43.12 155.55 41.68-112.81 29.86L50.3 310.66z"/><path class="cls-4" d="M237.92 408.63l-25.63-4.74-5.87-1.07-132.68-24.51-5.83-1.07L50.52 374s-5.3-6.78-5.3-30.8c0-26.67 5.07-32.57 5.07-32.57l19.17 3.68 5.54 1.1 132 25.32 5.59 1.06 24 4.61a117.29 117.29 0 00-4.13 31.6 94.89 94.89 0 005.46 30.63z"/><path class="cls-7" d="M333.23 359.52l-91.94 43.89s-3.85-9.53-4-27.94c-.13-19.22 3.24-26.26 3.24-26.26L332 307.15z"/><path class="cls-6" d="M238.49 357.32c.47-2.28 2.06-8.11 2.06-8.11L332 307.15l.21 7.15s-68.91 33.35-93.72 43.02z"/><path class="cls-3" d="M212.29 403.89l-5.87-1.07c-3.8-28.73-1.46-50.43.63-62.09l5.59 1.06c-2.01 11.51-4.34 33.42-.35 62.1zM73.74 378.31c-4.95-30.31-1.68-52.64 1.26-62.9l-5.57-1.07c-3.67 10.38-6.15 32.06-1.55 62.9z"/><g opacity=".5"><path d="M49.23 371.57a12.12 12.12 0 001.29 2.43l17.39 3.21 5.83 1.07 132.68 24.51 5.87 1.07 25.63 4.74s-.3-.76-.75-2.14c0 .03-185.89-34.68-187.94-34.89z" style="mix-blend-mode:multiply" opacity=".28" fill="#88adc7"/></g><path fill="#ed604e" d="M320.15 271.53l-83.31-32.94-175.59 33.14 76.81 34.72 182.09-34.92z"/><path style="mix-blend-mode:multiply" fill="#b89692" d="M291 260l-54.16-21.41-175.59 33.14 46.19 20.88 106.82 3.03L291 260z"/><path d="M61.25 271.73l.19 3.83 3.2 1.73-1.23 25.37-1.66-.76.11 3.63 75 35.91s3.14-1.52 3.76-9.9c.88-11.85-2.53-25.09-2.53-25.09z" fill="#b04434"/><path fill="#d84c3a" d="M138.06 306.45l-1.23 34.99 183.1-33.81.22-36.1-182.09 34.92z"/><path class="cls-14" d="M175.46 299.2l-8.4 1.61v34.93l8.4-1.55V299.2zm15.24-2.92l-10.35 1.98v35.02l10.35-1.91v-35.09z"/><path d="M97.57 264.76l-8.4 1.61 77.89 34.27 8.4-1.55-77.89-34.33zm15.24-2.92l-10.34 1.98 77.88 34.37 10.35-1.91-77.89-34.44zm85.06-16.24l-8.4 1.61 77.89 34.27 8.4-1.55-77.89-34.33zm15.25-2.92l-10.35 1.98 77.88 34.37 10.35-1.91-77.88-34.44z" fill="#ffa498"/><path class="cls-14" d="M291 277.12l-8.4 1.61v35.69l8.4-1.55v-35.75zm-12.89 2.44l-10.35 1.99v35.79l10.35-1.91v-35.87z"/><path class="cls-16" d="M63.41 302.66l70.12 33.68.72-27.15-69.61-31.9-1.23 25.37z"/><path class="cls-6" d="M64.18 286.79l69.81 32.24.26-9.84-69.61-31.9-.46 9.5z"/><path class="cls-17" d="M42.08 242.9l78.25-36.36 164.91 21.8-72.14 36.68L42.08 242.9z"/><path style="mix-blend-mode:multiply" fill="#93bbd7" opacity=".5" d="M53.01 237.96l67.32-31.42 164.91 21.8-65.87 33.5-166.36-23.88z"/><path d="M285.24 228.33l-.17 3.62-3 1.79 1.16 21.58 1.56-.8-.1 3.42-70.42 37.7s-9.94-2.13-10.52-10c-.83-11.08 9.36-20.65 9.36-20.65z" fill="#bfd8dc"/><path d="M213.1 265s-4.55 2.52-4.43 16.64a20.52 20.52 0 005.59 14l-172-22s-5.35-5.26-5.44-15.13c-.09-10.18 5.23-15.58 5.23-15.58z" fill="#49848c"/><path class="cls-17" d="M81.18 259.34l-5.02 4.45 5.02 5.71 5.02-4.46-5.02-5.7zm15.36 1.91l-5.01 4.46 5.01 5.71 5.02-4.46-5.02-5.71zm15.37 1.91l-5.02 4.46 5.02 5.71 5.01-4.46-5.01-5.71zm15.36 1.91l-5.02 4.46 5.02 5.71 5.02-4.46-5.02-5.71zm15.36 1.92l-5.01 4.46 5.01 5.7 5.02-4.46-5.02-5.7zM158 268.9l-5.02 4.46 5.02 5.71 5.01-4.46-5.01-5.71z"/><path class="cls-16" d="M283.22 255.32l-65.86 35.36-.67-23.28 65.37-33.66 1.16 21.58z"/><path style="mix-blend-mode:multiply" fill="#d8e2ec" d="M283.22 239.28l-66.15 41.36-.38-13.24 65.37-33.66 1.16 5.54z"/><path fill="#436a90" d="M82.08 196.24l80.72-31.19 162.97 30.39-74.72 32.84-168.97-32.04z"/><path class="cls-23" d="M82.08 196.24l80.72-31.19 148.49 27.71-10.1 13.49-69.41 18.22-149.7-28.23z"/><path d="M325.77 195.44l-.44 3.6-3.13 1.63.16 26.82 1.61-.71-.35 3.4-73.08 33.95s-9.76-8.66-9.76-16.51c0-11.11 10.27-19.34 10.27-19.34z" fill="#a5bdd1"/><path d="M251.05 228.28s-4.11 4.5-4.11 15.24a63.83 63.83 0 003.6 20.61l-170-31s-6.05-15.59-5.41-25.44c.67-10.18 7-11.45 7-11.45z" fill="#2b4c6b"/><path class="cls-23" d="M251.05 228.28l-169-32s-6.28 1.27-7 11.45A34.43 34.43 0 0076.61 219c30.73.4 174.44 9.28 174.44 9.28z"/><path class="cls-26" d="M322.36 227.49L254 259.34s-2.21-9.31-2.21-16.6c0-9 2.66-11.91 2.66-11.91l67.75-30.16z"/><path class="cls-6" d="M322.21 202.56v-1.89l-67.75 30.16s-2.66 2.93-2.66 11.91c0 .83 0 1.59.09 2.32 7.86-5.06 54.66-33.49 70.32-42.5z"/><path fill="#edb446" d="M307.94 181.69l-78.25-30.93-164.91 31.12 72.14 32.61 171.02-32.8z"/><path class="cls-6" d="M293.84 180.52l-64.15-29.76-150.84 28.47 69.96 28.07 145.03-26.78z"/><path class="cls-26" d="M276.23 180.51l-51.13-21.37-62.29 11.89 47.56 22.39 65.86-12.91z"/><path d="M64.78 181.88l.18 3.6 3 1.63-1.16 13.43-1.55-.71.1 3.41L135.76 237s10-2.7 10.53-10.56c.82-11.14-9.37-11.91-9.37-11.91z" fill="#f0d29b"/><path d="M136.92 214.49s4 3.92 3.32 12.82a15.22 15.22 0 01-4.48 9.65l172-31.75s6.16-1.49 6.25-11.37c.09-10.19-6-12.15-6-12.15z" fill="#d08819"/><path class="cls-7" d="M66.8 200.54l65.86 31.64s3.1 0 3.1-6.94a15.93 15.93 0 00-2.42-8.17L68 187.11z"/><path class="cls-6" d="M134.79 220a15 15 0 00-1.45-3L68 187.11l-.3 3.48S112 211.15 134.79 220z"/><path fill="#5c9dbf" d="M332.13 137.39l-83.32-32.94-175.58 33.14 76.81 34.72 182.09-34.92z"/><path class="cls-23" d="M286.71 146.53L203.4 113.6 73.23 137.59l92.97 31.62 120.51-22.68z"/><path d="M73.23 137.59l.19 3.83 3.19 1.73-1.23 25.37-1.65-.76.1 3.63 75 35.91s3.14-1.52 3.76-9.9c.87-11.85-2.53-25.09-2.53-25.09z" fill="#4581a1"/><path fill="#5590b0" d="M150.04 172.31l-1.23 34.99 183.1-33.81.22-36.1-182.09 34.92z"/><path class="cls-33" d="M202.68 162.14l-25.7 4.62v35.02l25.7-4.55v-35.09zm105.26-20.21l-28.2 5.48v35.79l28.2-5.41v-35.86z"/><path class="cls-33" d="M202.68 162.14l-25.7 4.62-82.15-34.03 25.7-4.54 82.15 33.95zm105.26-20.21l-28.2 5.48-82.15-33.26 28.2-5.41 82.15 33.19z"/><path class="cls-16" d="M75.38 168.52l70.13 33.68.71-27.15-69.61-31.9-1.23 25.37z"/><path class="cls-6" d="M76.15 152.65l69.81 32.24.26-9.84-69.61-31.9-.46 9.5z"/><path fill="#edb047" d="M52 101.76l82.07-31.32 161.35 38.09-76.19 29.26L52 101.76z"/><path style="mix-blend-mode:multiply" fill="#dba49e" opacity=".5" d="M52 101.76l82.07-31.32 147.01 34.73-80.51 28.6L52 101.76z"/><path fill="#ffd88e" d="M295.42 108.53l-.61 3.57-3.21 1.48-.82 28.81-.07-1.05 1.71.41-.51 3.38-74.6 30.44 1.92-37.78 76.19-29.26z"/><path fill="#e0a435" d="M219.23 137.79l-1.92 37.78-166.33-38.04L52 101.76l167.23 36.03z"/><path class="cls-26" d="M79.54 130.14l2.88-2.28-2.93-3.53-.04-4.11-4.12-.89-2.94-3.54-2.88 2.28-4.12-.89.03 4.11-2.88 2.27 2.94 3.54.03 4.11 4.12.89 2.94 3.53 2.89-2.28 4.12.9-.04-4.11zm40.04 8.65l2.88-2.28-2.94-3.53-.03-4.11-4.12-.89-2.94-3.53-2.89 2.27-4.12-.89.04 4.11-2.88 2.28 2.93 3.53.04 4.11 4.12.89 2.94 3.53 2.88-2.27 4.12.89-.03-4.11zm40.03 8.65l2.89-2.27-2.94-3.54-.04-4.1-4.12-.9-2.93-3.53-2.89 2.28-4.12-.89.04 4.1-2.89 2.28 2.94 3.54.04 4.1 4.12.89 2.93 3.54 2.89-2.28 4.12.89-.04-4.11zm40.04 8.66l2.88-2.28-2.93-3.53-.04-4.11-4.12-.89-2.94-3.54-2.88 2.28-4.12-.89.03 4.11-2.88 2.27 2.94 3.54.03 4.11 4.12.89 2.94 3.53 2.89-2.27 4.12.89-.04-4.11z" opacity=".72"/><path class="cls-26" d="M290.78 142.39l-69.79 28.57 1.51-30.46 69.1-26.92-.82 28.81z"/><path class="cls-6" d="M291.53 115.47l.07-1.89-69.1 26.92-.35 5.19s53.31-21.96 69.38-30.22z"/><path fill="#899178" d="M65.67 64.22l118.73-24.2 117.77 30.91-115.76 24.93L65.67 64.22z"/><path class="cls-40" d="M111.25 65.68l73.17-15.14 50.83 13.68-72.44 15.59-51.56-14.13zm190.92 5.25l-.17 3.52-2.93 1.55 1.13 23.25-.05-1 1.41.82.06 2.77-114.08 26s-2.88-1.39-3.45-9.07c-.8-10.87 2.32-23 2.32-23z"/><path fill="#798268" d="M186.41 95.86l1.13 32.07L65.88 96.4l-.21-32.18 120.74 31.64z"/><path class="cls-40" d="M78.75 74.4l89.51 24.12v19.1L78.75 92.63V74.4z"/><path style="mix-blend-mode:multiply" opacity=".93" fill="#b9c3ac" d="M73.86 62.55L184.4 40.02l106.63 27.99-136.4 19.52-80.77-24.98z"/><path class="cls-26" d="M300.2 99.28l-109.64 23.98-.65-24.89 109.16-22.34 1.13 23.25z"/><path style="mix-blend-mode:multiply" opacity=".38" fill="#b9c3ac" d="M299.49 77.87l-109.58 29.76v-9.26l109.16-22.34.42 1.84z"/><path fill="#dc708a" d="M286.71 31.19L205.99 0 43.02 30.39l74.71 32.84 168.98-32.04z"/><path class="cls-45" d="M43 30.39l.44 3.6 3.13 1.63-.16 20.82-1.62-.71.36 3.4 73.07 33.95s6.64-2.16 6-13.11c-.79-13.09-6.49-16.74-6.49-16.74z"/><path d="M117.73 63.23s4.12 4.51 4.12 15.24c0 11.27-3.61 14.61-3.61 14.61l170-31s5.06-5.58 4.41-15.44c-.66-10.17-5.94-15.45-5.94-15.45z" fill="#bf4e6a"/><path class="cls-16" d="M46.43 56.44l68.35 31.85S117 85 117 77.69c0-9-2.65-11.9-2.65-11.9L46.59 35.62z"/><path class="cls-6" d="M46.57 37.51v-1.89l67.75 30.17s2 2.2 2.53 8.68c.02 0-54.62-27.95-70.28-36.96z"/><ellipse class="cls-45" cx="205.72" cy="62.63" rx="47.2" ry="7.31" transform="rotate(-10.11 205.809 62.64)"/><ellipse cx="163.42" cy="30.39" rx="59.17" ry="12.39" transform="rotate(-5.45 163.434 30.416)" fill="#eb869e"/></g></g></g></svg>