<svg xmlns="http://www.w3.org/2000/svg" viewBox="0 0 81.93 87.36"><defs><style>.cls-1{isolation:isolate;}.cls-2{fill:#cc6916;}.cls-3{fill:#fc891f;}.cls-4,.cls-9{fill:#fff;mix-blend-mode:overlay;}.cls-4{opacity:0.2;}.cls-5{fill:#fff1da;}.cls-6{fill:#e5d5bd;}.cls-7{fill:#51b7b7;}.cls-8{fill:#67d6df;}.cls-9{opacity:0.5;}.cls-10{fill:#eabe1f;}.cls-11{fill:#ffe12b;}.cls-12{fill:#5e4d4a;}.cls-13{fill:#6e5c58;}</style></defs><title>books2</title><g class="cls-1"><g id="Слой_2" data-name="Слой 2"><g id="Objects"><path class="cls-2" d="M23.73,2.48V87.35H20L3.71,85.86V0H20l2.78,1.11A1.48,1.48,0,0,1,23.73,2.48Z"/><path class="cls-3" d="M2,0H20a0,0,0,0,1,0,0V87.36a0,0,0,0,1,0,0H0a0,0,0,0,1,0,0V2A2,2,0,0,1,2,0Z"/><rect class="cls-4" x="17.87" width="1.44" height="87.36"/><rect class="cls-5" y="3.4" width="20.03" height="2.35"/><polygon class="cls-6" points="23.73 4.88 23.73 7.23 20.02 5.75 20.02 3.4 23.73 4.88"/><rect class="cls-5" y="8.31" width="20.03" height="2.35"/><polygon class="cls-6" points="23.73 9.79 23.73 12.14 20.02 10.66 20.02 8.31 23.73 9.79"/><path class="cls-7" d="M39.44,25.85v61.5H36.75L24.92,86.28V24.05H36.75l2,.81A1.07,1.07,0,0,1,39.44,25.85Z"/><path class="cls-8" d="M24.21,24.05H36.75a0,0,0,0,1,0,0V87.36a0,0,0,0,1,0,0H22.24a0,0,0,0,1,0,0V26A2,2,0,0,1,24.21,24.05Z"/><rect class="cls-9" x="35.19" y="24.05" width="1.04" height="63.31"/><rect class="cls-5" x="22.24" y="26.51" width="14.51" height="1.7"/><polygon class="cls-6" points="39.44 27.59 39.44 29.29 36.75 28.22 36.75 26.51 39.44 27.59"/><rect class="cls-5" x="22.24" y="30.07" width="14.51" height="1.7"/><polygon class="cls-6" points="39.44 31.15 39.44 32.85 36.75 31.78 36.75 30.07 39.44 31.15"/><path class="cls-10" d="M58.07,10l6.08,75.63-3.3.27L46.2,85.76,40.05,9.25,54.59,8.08l2.56.8A1.32,1.32,0,0,1,58.07,10Z"/><path class="cls-11" d="M41.82,8.68H57.75a0,0,0,0,1,0,0V86.77a0,0,0,0,1,0,0H39.85a0,0,0,0,1,0,0V10.65a2,2,0,0,1,2-2Z" transform="matrix(1, -0.08, 0.08, 1, -3.67, 4.07)"/><rect class="cls-9" x="55.79" y="8.06" width="1.28" height="78.09" transform="translate(-3.6 4.68) rotate(-4.6)"/><path class="cls-12" d="M81.93,20.51V87.35H79L66.16,86.18V18.56H79l2.2.88A1.14,1.14,0,0,1,81.93,20.51Z"/><path class="cls-13" d="M65.22,18.56H79a0,0,0,0,1,0,0v68.8a0,0,0,0,1,0,0H63.24a0,0,0,0,1,0,0V20.54A2,2,0,0,1,65.22,18.56Z"/><rect class="cls-9" x="77.32" y="18.56" width="1.13" height="68.8"/></g></g></g></svg>