<svg xmlns="http://www.w3.org/2000/svg" viewBox="0 0 335.43 422.61"><defs><style>.cls-1{isolation:isolate;}.cls-2{fill:#e8dedc;opacity:0.66;}.cls-11,.cls-18,.cls-2,.cls-21,.cls-23,.cls-35,.cls-42,.cls-43,.cls-6,.cls-8,.cls-9{mix-blend-mode:multiply;}.cls-3{fill:#827cbb;}.cls-4{fill:#5c53a2;}.cls-5{fill:#6f67bb;}.cls-11,.cls-6{fill:#b89692;}.cls-18,.cls-23,.cls-35,.cls-6,.cls-8{opacity:0.5;}.cls-7{fill:#faebd9;}.cls-23,.cls-9{fill:#88adc7;}.cls-9{opacity:0.28;}.cls-10{fill:#ed604e;}.cls-12{fill:#b04434;}.cls-13{fill:#d84c3a;}.cls-14{fill:#ed7566;}.cls-15{fill:#ffa498;}.cls-16{fill:#f1e0cc;}.cls-17{fill:#5f9ca4;}.cls-18{fill:#93bbd7;}.cls-19{fill:#bfd8dc;}.cls-20{fill:#49848c;}.cls-21{fill:#d8e2ec;}.cls-22{fill:#436a90;}.cls-24{fill:#a5bdd1;}.cls-25{fill:#2b4c6b;}.cls-26{fill:#fff;}.cls-27{fill:#edb446;}.cls-28{fill:#f0d29b;}.cls-29{fill:#d08819;}.cls-30{fill:#5c9dbf;}.cls-31{fill:#4581a1;}.cls-32{fill:#5590b0;}.cls-33{fill:#41687e;}.cls-34{fill:#edb047;}.cls-35{fill:#dba49e;}.cls-36{fill:#ffd88e;}.cls-37{fill:#e0a435;}.cls-38{opacity:0.72;}.cls-39{fill:#899178;}.cls-40,.cls-42,.cls-43{fill:#b9c3ac;}.cls-41{fill:#798268;}.cls-42{opacity:0.93;}.cls-43{opacity:0.38;}.cls-44{fill:#dc708a;}.cls-45{fill:#cf6579;}.cls-46{fill:#bf4e6a;}.cls-47{fill:#eb869e;}</style></defs><title>books_stack</title><g class="cls-1"><g id="Слой_2" data-name="Слой 2"><g id="OBJECTS"><polygon class="cls-2" points="237.92 408.63 197.65 422.61 0 385.18 88.12 353.68 237.92 408.63"/><polygon class="cls-3" points="50.3 310.66 155.74 267.54 335.43 301.45 236.65 346.4 50.3 310.66"/><polygon class="cls-4" points="91.74 307.13 156.84 278.93 294.91 304.92 232.95 334 91.74 307.13"/><path class="cls-5" d="M335.43,301.45l-.19,3.92L332,307.15l1.26,52.37,1.7-.77-.11,3.71-96.91,46.17s-10.83-2.95-11.47-11.52c-.89-12.13,10.21-50.71,10.21-50.71Z"/><polygon class="cls-6" points="50.3 310.66 155.74 267.54 311.29 309.22 198.48 339.08 50.3 310.66"/><path class="cls-4" d="M237.92,408.63l-25.63-4.74-5.87-1.07L73.74,378.31l-5.83-1.07L50.52,374s-5.3-6.78-5.3-30.8c0-26.67,5.07-32.57,5.07-32.57l19.17,3.68L75,315.41l132,25.32,5.59,1.06,24,4.61A117.29,117.29,0,0,0,232.46,378,94.89,94.89,0,0,0,237.92,408.63Z"/><path class="cls-7" d="M333.23,359.52l-91.94,43.89s-3.85-9.53-4-27.94c-.13-19.22,3.24-26.26,3.24-26.26L332,307.15Z"/><path class="cls-6" d="M238.49,357.32c.47-2.28,2.06-8.11,2.06-8.11L332,307.15l.21,7.15S263.3,347.65,238.49,357.32Z"/><path class="cls-3" d="M212.29,403.89l-5.87-1.07c-3.8-28.73-1.46-50.43.63-62.09l5.59,1.06C210.63,353.3,208.3,375.21,212.29,403.89Z"/><path class="cls-3" d="M73.74,378.31C68.79,348,72.06,325.67,75,315.41l-5.57-1.07c-3.67,10.38-6.15,32.06-1.55,62.9Z"/><g class="cls-8"><path class="cls-9" d="M49.23,371.57A12.12,12.12,0,0,0,50.52,374l17.39,3.21,5.83,1.07,132.68,24.51,5.87,1.07,25.63,4.74s-.3-.76-.75-2.14C237.17,406.49,51.28,371.78,49.23,371.57Z"/></g><polygon class="cls-10" points="320.15 271.53 236.84 238.59 61.25 271.73 138.06 306.45 320.15 271.53"/><polygon class="cls-11" points="291 260 236.84 238.59 61.25 271.73 107.44 292.61 214.26 295.64 291 260"/><path class="cls-12" d="M61.25,271.73l.19,3.83,3.2,1.73-1.23,25.37-1.66-.76.11,3.63,75,35.91s3.14-1.52,3.76-9.9c.88-11.85-2.53-25.09-2.53-25.09Z"/><polygon class="cls-13" points="138.06 306.45 136.83 341.44 319.93 307.63 320.15 271.53 138.06 306.45"/><polygon class="cls-14" points="175.46 299.2 167.06 300.81 167.06 335.74 175.46 334.19 175.46 299.2"/><polygon class="cls-14" points="190.7 296.28 180.35 298.26 180.35 333.28 190.7 331.37 190.7 296.28"/><polygon class="cls-15" points="97.57 264.76 89.17 266.37 167.06 300.64 175.46 299.09 97.57 264.76"/><polygon class="cls-15" points="112.81 261.84 102.47 263.82 180.35 298.19 190.7 296.28 112.81 261.84"/><polygon class="cls-15" points="197.87 245.6 189.47 247.21 267.36 281.48 275.76 279.93 197.87 245.6"/><polygon class="cls-15" points="213.12 242.68 202.77 244.66 280.65 279.03 291 277.12 213.12 242.68"/><polygon class="cls-14" points="291 277.12 282.6 278.73 282.6 314.42 291 312.87 291 277.12"/><polygon class="cls-14" points="278.11 279.56 267.76 281.55 267.76 317.34 278.11 315.43 278.11 279.56"/><polygon class="cls-16" points="63.41 302.66 133.53 336.34 134.25 309.19 64.64 277.29 63.41 302.66"/><polygon class="cls-6" points="64.18 286.79 133.99 319.03 134.25 309.19 64.64 277.29 64.18 286.79"/><polygon class="cls-17" points="42.08 242.9 120.33 206.54 285.24 228.34 213.1 265.02 42.08 242.9"/><polygon class="cls-18" points="53.01 237.96 120.33 206.54 285.24 228.34 219.37 261.84 53.01 237.96"/><path class="cls-19" d="M285.24,228.33l-.17,3.62-3,1.79,1.16,21.58,1.56-.8-.1,3.42-70.42,37.7s-9.94-2.13-10.52-10c-.83-11.08,9.36-20.65,9.36-20.65Z"/><path class="cls-20" d="M213.1,265s-4.55,2.52-4.43,16.64a20.52,20.52,0,0,0,5.59,14l-172-22s-5.35-5.26-5.44-15.13c-.09-10.18,5.23-15.58,5.23-15.58Z"/><polygon class="cls-17" points="81.18 259.34 76.16 263.79 81.18 269.5 86.2 265.04 81.18 259.34"/><polygon class="cls-17" points="96.54 261.25 91.53 265.71 96.54 271.42 101.56 266.96 96.54 261.25"/><polygon class="cls-17" points="111.91 263.16 106.89 267.62 111.91 273.33 116.92 268.87 111.91 263.16"/><polygon class="cls-17" points="127.27 265.07 122.25 269.53 127.27 275.24 132.29 270.78 127.27 265.07"/><polygon class="cls-17" points="142.63 266.99 137.62 271.45 142.63 277.15 147.65 272.69 142.63 266.99"/><polygon class="cls-17" points="158 268.9 152.98 273.36 158 279.07 163.01 274.61 158 268.9"/><polygon class="cls-16" points="283.22 255.32 217.36 290.68 216.69 267.4 282.06 233.74 283.22 255.32"/><polygon class="cls-21" points="283.22 239.28 217.07 280.64 216.69 267.4 282.06 233.74 283.22 239.28"/><polygon class="cls-22" points="82.08 196.24 162.8 165.05 325.77 195.44 251.05 228.28 82.08 196.24"/><polygon class="cls-23" points="82.08 196.24 162.8 165.05 311.29 192.76 301.19 206.25 231.78 224.47 82.08 196.24"/><path class="cls-24" d="M325.77,195.44l-.44,3.6-3.13,1.63.16,26.82,1.61-.71-.35,3.4-73.08,33.95s-9.76-8.66-9.76-16.51c0-11.11,10.27-19.34,10.27-19.34Z"/><path class="cls-25" d="M251.05,228.28s-4.11,4.5-4.11,15.24a63.83,63.83,0,0,0,3.6,20.61l-170-31s-6.05-15.59-5.41-25.44c.67-10.18,7-11.45,7-11.45Z"/><path class="cls-23" d="M251.05,228.28l-169-32s-6.28,1.27-7,11.45A34.43,34.43,0,0,0,76.61,219C107.34,219.4,251.05,228.28,251.05,228.28Z"/><path class="cls-26" d="M322.36,227.49,254,259.34s-2.21-9.31-2.21-16.6c0-9,2.66-11.91,2.66-11.91l67.75-30.16Z"/><path class="cls-6" d="M322.21,202.56v-1.89l-67.75,30.16s-2.66,2.93-2.66,11.91c0,.83,0,1.59.09,2.32C259.75,240,306.55,211.57,322.21,202.56Z"/><polygon class="cls-27" points="307.94 181.69 229.69 150.76 64.78 181.88 136.92 214.49 307.94 181.69"/><polygon class="cls-6" points="293.84 180.52 229.69 150.76 78.85 179.23 148.81 207.3 293.84 180.52"/><polygon class="cls-26" points="276.23 180.51 225.1 159.14 162.81 171.03 210.37 193.42 276.23 180.51"/><path class="cls-28" d="M64.78,181.88l.18,3.6,3,1.63L66.8,200.54l-1.55-.71.1,3.41L135.76,237s10-2.7,10.53-10.56c.82-11.14-9.37-11.91-9.37-11.91Z"/><path class="cls-29" d="M136.92,214.49s4,3.92,3.32,12.82a15.22,15.22,0,0,1-4.48,9.65l172-31.75s6.16-1.49,6.25-11.37c.09-10.19-6-12.15-6-12.15Z"/><path class="cls-7" d="M66.8,200.54l65.86,31.64s3.1,0,3.1-6.94a15.93,15.93,0,0,0-2.42-8.17L68,187.11Z"/><path class="cls-6" d="M134.79,220a15,15,0,0,0-1.45-3L68,187.11l-.3,3.48S112,211.15,134.79,220Z"/><polygon class="cls-30" points="332.13 137.39 248.81 104.45 73.23 137.59 150.04 172.31 332.13 137.39"/><polygon class="cls-23" points="286.71 146.53 203.4 113.6 73.23 137.59 166.2 169.21 286.71 146.53"/><path class="cls-31" d="M73.23,137.59l.19,3.83,3.19,1.73-1.23,25.37-1.65-.76.1,3.63,75,35.91s3.14-1.52,3.76-9.9c.87-11.85-2.53-25.09-2.53-25.09Z"/><polygon class="cls-32" points="150.04 172.31 148.81 207.3 331.91 173.49 332.13 137.39 150.04 172.31"/><polygon class="cls-33" points="202.68 162.14 176.98 166.76 176.98 201.78 202.68 197.23 202.68 162.14"/><polygon class="cls-33" points="307.94 141.93 279.74 147.41 279.74 183.2 307.94 177.79 307.94 141.93"/><polygon class="cls-33" points="202.68 162.14 176.98 166.76 94.83 132.73 120.53 128.19 202.68 162.14"/><polygon class="cls-33" points="307.94 141.93 279.74 147.41 197.59 114.15 225.79 108.74 307.94 141.93"/><polygon class="cls-16" points="75.38 168.52 145.51 202.2 146.22 175.05 76.61 143.15 75.38 168.52"/><polygon class="cls-6" points="76.15 152.65 145.96 184.89 146.22 175.05 76.61 143.15 76.15 152.65"/><polygon class="cls-34" points="52 101.76 134.07 70.44 295.42 108.53 219.23 137.79 52 101.76"/><polygon class="cls-35" points="52 101.76 134.07 70.44 281.08 105.17 200.57 133.77 52 101.76"/><polygon class="cls-36" points="295.42 108.53 294.81 112.1 291.6 113.58 290.78 142.39 290.71 141.34 292.42 141.75 291.91 145.13 217.31 175.57 219.23 137.79 295.42 108.53"/><polygon class="cls-37" points="219.23 137.79 217.31 175.57 50.98 137.53 52 101.76 219.23 137.79"/><g class="cls-38"><polygon class="cls-26" points="79.54 130.14 82.42 127.86 79.49 124.33 79.45 120.22 75.33 119.33 72.39 115.79 69.51 118.07 65.39 117.18 65.42 121.29 62.54 123.56 65.48 127.1 65.51 131.21 69.63 132.1 72.57 135.63 75.46 133.35 79.58 134.25 79.54 130.14"/><polygon class="cls-26" points="119.58 138.79 122.46 136.51 119.52 132.98 119.49 128.87 115.37 127.98 112.43 124.45 109.54 126.72 105.42 125.83 105.46 129.94 102.58 132.22 105.51 135.75 105.55 139.86 109.67 140.75 112.61 144.28 115.49 142.01 119.61 142.9 119.58 138.79"/><polygon class="cls-26" points="159.61 147.44 162.5 145.17 159.56 141.63 159.52 137.53 155.4 136.63 152.47 133.1 149.58 135.38 145.46 134.49 145.5 138.59 142.61 140.87 145.55 144.41 145.59 148.51 149.71 149.4 152.64 152.94 155.53 150.66 159.65 151.55 159.61 147.44"/><polygon class="cls-26" points="199.65 156.1 202.53 153.82 199.6 150.29 199.56 146.18 195.44 145.29 192.5 141.75 189.62 144.03 185.5 143.14 185.53 147.25 182.65 149.52 185.59 153.06 185.62 157.17 189.74 158.06 192.68 161.59 195.57 159.32 199.69 160.21 199.65 156.1"/></g><polygon class="cls-26" points="290.78 142.39 220.99 170.96 222.5 140.5 291.6 113.58 290.78 142.39"/><path class="cls-6" d="M291.53,115.47l.07-1.89L222.5,140.5l-.35,5.19S275.46,123.73,291.53,115.47Z"/><polygon class="cls-39" points="65.67 64.22 184.4 40.02 302.17 70.93 186.41 95.86 65.67 64.22"/><polygon class="cls-40" points="111.25 65.68 184.42 50.54 235.25 64.22 162.81 79.81 111.25 65.68"/><path class="cls-40" d="M302.17,70.93,302,74.45,299.07,76l1.13,23.25-.05-1,1.41.82.06,2.77-114.08,26s-2.88-1.39-3.45-9.07c-.8-10.87,2.32-23,2.32-23Z"/><polygon class="cls-41" points="186.41 95.86 187.54 127.93 65.88 96.4 65.67 64.22 186.41 95.86"/><polygon class="cls-40" points="78.75 74.4 168.26 98.52 168.26 117.62 78.75 92.63 78.75 74.4"/><polygon class="cls-42" points="73.86 62.55 184.4 40.02 291.03 68.01 154.63 87.53 73.86 62.55"/><polygon class="cls-26" points="300.2 99.28 190.56 123.26 189.91 98.37 299.07 76.03 300.2 99.28"/><polygon class="cls-43" points="299.49 77.87 189.91 107.63 189.91 98.37 299.07 76.03 299.49 77.87"/><polygon class="cls-44" points="286.71 31.19 205.99 0 43.02 30.39 117.73 63.23 286.71 31.19"/><path class="cls-45" d="M43,30.39l.44,3.6,3.13,1.63-.16,20.82-1.62-.71.36,3.4,73.07,33.95s6.64-2.16,6-13.11c-.79-13.09-6.49-16.74-6.49-16.74Z"/><path class="cls-46" d="M117.73,63.23s4.12,4.51,4.12,15.24c0,11.27-3.61,14.61-3.61,14.61l170-31s5.06-5.58,4.41-15.44c-.66-10.17-5.94-15.45-5.94-15.45Z"/><path class="cls-16" d="M46.43,56.44l68.35,31.85S117,85,117,77.69c0-9-2.65-11.9-2.65-11.9L46.59,35.62Z"/><path class="cls-6" d="M46.57,37.51l0-1.89,67.75,30.17s2,2.2,2.53,8.68C116.87,74.47,62.23,46.52,46.57,37.51Z"/><ellipse class="cls-45" cx="205.72" cy="62.63" rx="47.2" ry="7.31" transform="translate(-7.8 37.1) rotate(-10.11)"/><ellipse class="cls-47" cx="163.42" cy="30.39" rx="59.17" ry="12.39" transform="translate(-2.15 15.66) rotate(-5.45)"/></g></g></g></svg>