<svg id="Слой_1" data-name="Слой 1" xmlns="http://www.w3.org/2000/svg" viewBox="0 0 61.15 39.21"><defs><style>.cls-1{fill:#fff;stroke:#000;stroke-miterlimit:10}</style></defs><path class="cls-1" d="M25.34 24.23h7.2v38.21h-7.2zm2.6 0h23v6.94h-23zm0 15.77h20.11v6.93H27.94zm0 15.5h23v6.94h-23zm35.82-19.72a2.84 2.84 0 00-.1-.66l-.59.26zm-3.91-2.26l.81.47 1.69-.74a3.3 3.3 0 00-1.84-.56 3.26 3.26 0 102.38 5.48l-4.29-2.48zM76.5 29.5l-2.12.93a3.25 3.25 0 10-.84-2.17.28.28 0 000 .09l2-.85zm-2.98 26.17a3.11 3.11 0 00-1.06-.18 3.22 3.22 0 00-2.38 1l1.65 1.08zm-4.31 3.27a3.25 3.25 0 006.5-.2 3.11 3.11 0 00-.46-1.66L72 60.78zM57.47 48.28l3 2a1.27 1.27 0 000-.2 3.24 3.24 0 10-1.12 2.46l-3.25-2.17z" transform="translate(-24.84 -23.73)"/><path class="cls-1" d="M63.66 35.12l10.72-4.69a3.1 3.1 0 01-.83-2.08l-11.2 4.9a3.22 3.22 0 011.31 1.87zm15.39 12.37a3.26 3.26 0 00.69 1.42l.61-.66zm3.18-3.95a3.25 3.25 0 00-2.65 1.37l2.51 1.45 1-1 1.72 1.43-3 3.28a2.42 2.42 0 00.47 0 3.26 3.26 0 100-6.52zm-2.65 1.37l-15.82-9.13a.86.86 0 010 .16 3.24 3.24 0 01-.88 2.23l16.16 9.32a3.1 3.1 0 01-.04-.69 3.23 3.23 0 01.58-1.89zm-6.06 10.76a3.18 3.18 0 011.73 1.41L81.76 50a3.27 3.27 0 01-2-1.11zm-3.44.85l-9.58-6.26a3.24 3.24 0 01-1.11 2.26l9.82 6.42a1.27 1.27 0 010-.2 3.21 3.21 0 01.87-2.22z" transform="translate(-24.84 -23.73)"/><path d="M9.66 4.77h8v1h-8zm10.5 0h4v1h-4zm-6 22.5l-2-2.28-2 2.28v-8h4v8z"/></svg>