<svg width="225" height="90" fill="none" xmlns="http://www.w3.org/2000/svg"><path fill="#E7D3B0" d="M0 0h225v90H0z"/><path fill="#D6AF86" d="M10 7h205v76H10z"/><path d="M10 79h205l-13.192-10H23.197L10 79z" fill="#E0B894"/><path d="M23 69h179V10H23v59z" fill="#C99E79"/><path opacity=".1" d="M22.998 68.671h178.593V53.997H22.998v14.674z" fill="#C99E79"/><path d="M23.2 38.95h178.594V24.278H23.201v14.674z" fill="#BE8B61"/><path d="M23.2 53.624h178.594V38.951H23.201v14.673z" fill="#C4946D"/><path d="M23.2 24.285h178.594V9.61H23.201v14.674z" fill="#B98155"/><path d="M10 10h205V7H10v3z" fill="#B4936A"/><path d="M10 83h205v-3H10v3z" fill="#F3E9D7"/></svg>