<svg width="348" height="449" fill="none" xmlns="http://www.w3.org/2000/svg"><path d="M203.762 354.449h-15.625v35.016h15.625v-35.016z" fill="#92612B"/><path d="M208.197 387.853h-24.495v6.751h24.495v-6.751z" fill="#FFCB2A"/><path d="M127.909 429.47s52.013 22.521 136.081 1.713c0 0-15.624-38.443-70.561-37.838-53.424.554-65.52 36.125-65.52 36.125z" fill="#E79724" id="lamp-leg"/><path d="M182.694 398.585a66.877 66.877 0 00-36.591 28.466l-11.088-3.829s17.64-24.94 47.679-24.637z" fill="#fff"/><path d="M193.228 393.345c-4.282.03-8.558.333-12.802.907 17.993.755 53.777 6.6 70.561 39.903 4.284-.906 8.669-1.864 13.154-2.972-.1 0-15.725-38.191-70.913-37.838z" fill="#E79724" opacity=".5"/><path d="M225.182 310.867l5.947 14.51 11.189-2.62-5.242-16.777-11.894 4.887zM143.634 47.965s-12.752-32.95-15.121-40.81c-1.26-3.93 7.208-8.213 10.081-3.729 2.872 4.484 15.12 41.012 15.12 41.012l-10.08 3.527z" fill="#92612B"/><path d="M340.397 125.959c24.546 73.51-21.621 155.131-103.119 182.288-81.498 27.157-167.481-10.228-191.976-83.738C20.807 151 66.924 69.429 148.422 42.222c81.497-27.208 167.481 10.378 191.975 83.737z" fill="#60C9E0"/><path d="M85.723 267.033a6.095 6.095 0 003.176-5.693c0-3.174-2.823-10.077.655-10.782 3.477-.706 2.822-3.779 1.26-13.604-1.563-9.825 4.435-25.192 13.608-26.3 9.173-1.109 11.088-6.953 11.743-14.259.656-7.305 2.823-12.344 9.072-14.006 10.988-3.023 21.572-.555 26.965-5.946 5.393-5.391 3.225-14.057-1.109-22.672-4.335-8.616-1.058-9.17 5.393-20.154 6.451-10.983.756-18.793-3.226-27.811a17.17 17.17 0 00-8.974-9.622 17.195 17.195 0 00-13.152-.455 22.232 22.232 0 01-23.184-3.779c-6.502-5.391-18.9 10.782-27.519 5.391a10.081 10.081 0 00-8.165-3.073c-30.34 36.729-42.135 84.946-26.964 130.241a128.522 128.522 0 0036.944 55.775 10.074 10.074 0 001.613-2.57c1.26-3.174.302-9.824 1.864-10.681zm254.675-141.074a134.33 134.33 0 00-31.522-50.534 134.377 134.377 0 00-50.279-31.944c6.048 6.348 12.399 17.08-1.663 25.595-15.372 7.709-12.298 12.294-8.114 25.192 4.183 12.898 5.796 28.416-4.587 33.404-10.382 4.988-24.595 16.123-21.874 33.001 1.916 9.573 10.081 3.829 14.213 3.074 4.133-.756 9.173 8.061 11.895 14.561 2.722 6.499 8.064 7.708 14.566 1.158 6.501-6.549 13.86-20.707 22.277-14.208 8.417 6.5 10.08 3.477 13.457 3.829 3.377.353 9.677 7.256 11.541 12.294 1.865 5.038-11.138 11.538-3.477 19.196 7.661 7.658 17.287-.353 19.202 6.147 1.512 5.038 1.613 13.805 7.006 19.599a132.017 132.017 0 007.359-100.364z" fill="#7FBF54"/><path d="M145.549 44.035s.857 4.233 2.419 11.74c1.563 7.507 3.881 18.138 6.754 30.885 1.461 6.348 3.024 13.301 4.788 20.556.857 3.678 1.764 7.407 2.671 11.236.907 3.829 1.915 7.709 2.873 11.689 1.966 7.96 4.133 16.123 6.3 24.436 2.167 8.313 4.536 16.677 6.804 25.192 2.268 8.515 4.738 16.777 7.157 25.191 2.419 8.415 5.04 16.325 7.409 24.134 2.369 7.81 5.04 15.115 7.358 22.371 2.319 7.255 4.738 13.805 7.006 20.153 2.268 6.348 4.385 11.739 6.3 16.677.437 1.276.89 2.486 1.361 3.628l1.361 3.325a312.364 312.364 0 002.419 5.844l4.586 11.085-4.687-11.034-2.52-5.845a108.137 108.137 0 01-1.361-3.275c-.453-1.158-.957-2.368-1.411-3.577l-6.451-16.677c-2.268-6.147-4.587-12.848-7.056-20.153-2.47-7.306-5.04-14.612-7.46-22.371-2.419-7.759-5.04-15.87-7.459-24.083-2.419-8.213-5.04-16.627-7.258-25.192-2.217-8.565-4.636-16.878-6.753-25.192-2.117-8.313-4.284-16.475-6.2-24.436-.957-3.98-1.915-7.859-2.822-11.689l-2.671-11.235c-1.714-7.306-3.226-14.259-4.687-20.607-2.823-12.798-5.041-23.479-6.502-30.986a2115.445 2115.445 0 01-2.268-11.79zm-30.896 13.957s0 4.232.303 11.688a667.36 667.36 0 001.965 30.785c.555 6.348 1.21 13.2 2.117 20.506.907 7.306 1.865 14.863 3.075 22.773.655 3.93 1.26 7.911 2.016 11.941l1.058 6.097 1.21 6.147c1.612 8.212 3.477 16.525 5.493 24.788 1.059 4.132 2.067 8.263 3.176 12.344 1.108 4.081 2.217 8.162 3.477 12.143 1.26 3.98 2.369 8.011 3.73 11.84 1.361 3.829 2.621 7.759 4.032 11.487a180.396 180.396 0 002.066 5.543c.706 1.813 1.412 3.627 2.168 5.391.756 1.763 1.411 3.577 2.116 5.29.706 1.713 1.512 3.426 2.218 5.038 1.512 3.325 2.923 6.6 4.486 9.674 1.562 3.073 2.923 6.096 4.485 8.867l4.335 8.062 4.183 7.154c1.31 2.267 2.671 4.283 3.881 6.147a212.885 212.885 0 003.377 5.038c2.167 3.074 3.931 5.391 5.04 7.004l1.814 2.468-1.865-2.418-5.04-6.953-3.427-5.038c-1.26-1.864-2.621-3.829-3.931-6.097l-4.284-7.053c-1.462-2.57-2.873-5.039-4.436-8.062-1.562-3.023-2.923-5.794-4.485-8.867-1.563-3.074-3.024-6.349-4.536-9.674-.706-1.663-1.512-3.376-2.218-5.038-.705-1.663-1.461-3.477-2.167-5.039-.706-1.561-1.512-3.577-2.218-5.441-.705-1.864-1.361-3.678-2.066-5.542-1.462-3.729-2.722-7.558-4.083-11.488-1.36-3.93-2.52-7.86-3.78-11.84-1.26-3.98-2.368-8.061-3.528-12.142-1.159-4.081-2.167-8.213-3.225-12.344-1.966-8.314-3.831-16.627-5.393-24.839-.403-2.066-.807-4.132-1.159-6.147l-1.059-6.097c-.756-4.081-1.361-8.061-1.965-12.041a547.922 547.922 0 01-3.024-22.774c-.807-7.255-1.512-14.157-2.016-20.556-2.117-25.696-1.916-42.725-1.916-42.725zm50.35-20.103a115.846 115.846 0 018.367 8.968c2.52 2.972 5.544 6.6 8.82 10.983 1.613 2.217 3.377 4.484 5.04 7.054 1.663 2.57 3.528 5.038 5.04 8.011 1.512 2.973 3.629 5.744 5.393 8.918 1.764 3.174 3.679 6.348 5.393 9.774 1.714 3.427 3.629 6.903 5.292 10.581 1.663 3.678 3.478 7.356 5.04 11.286 1.562 3.93 3.276 7.809 4.637 11.89l2.167 6.097 1.109 3.124.958 3.123c.604 2.116 1.26 4.233 1.864 6.349.605 2.116 1.361 4.232 1.815 6.449 1.058 4.282 2.066 8.666 3.125 12.999 1.713 8.767 3.376 17.533 5.04 26.149.907 4.333 1.461 8.615 2.167 12.898.706 4.283 1.361 8.465 2.016 12.596.353 2.066.706 4.081.958 6.147.252 2.065.554 4.03.806 6.046.504 3.98 1.008 7.91 1.512 11.689l.756 5.643c0 1.864.353 3.678.554 5.492.353 3.577.706 7.053 1.059 10.379 0 1.662.353 3.275.504 5.038.151 1.763 0 3.174.353 4.686 0 3.023.453 5.895.655 8.615.453 5.442.605 10.077.806 14.057.202 3.981.303 7.004.353 9.069.05 2.066 0 3.225 0 3.225v-3.225c0-2.116 0-5.038-.403-9.018-.403-3.981-.454-8.666-.958-14.057 0-2.721-.504-5.593-.756-8.666 0-1.512-.252-3.074-.403-4.636-.151-1.562-.302-3.224-.504-5.038-.353-3.325-.706-6.802-1.109-10.379l-.605-5.492-.756-5.592c-.504-3.83-1.008-7.709-1.562-11.74 0-1.965-.504-3.98-.806-6.046-.303-2.066-.656-4.081-.958-6.147-.706-4.131-1.361-8.313-2.067-12.545-.705-4.232-1.31-8.565-2.217-12.848-1.714-8.616-3.427-17.382-5.04-26.149-1.008-4.333-2.067-8.666-3.075-12.999-.453-2.167-1.159-4.283-1.764-6.399-.604-2.116-1.26-4.232-1.864-6.348l-.908-3.124-1.108-3.073-2.017-6.147c-1.36-4.081-3.074-7.961-4.636-11.891-1.563-3.93-3.276-7.608-5.04-11.235-1.764-3.628-3.428-7.205-5.04-10.58-1.613-3.376-3.579-6.651-5.343-9.825-1.764-3.175-3.629-6.097-5.393-8.918-1.764-2.822-3.578-5.492-5.04-8.011-1.461-2.52-3.377-5.039-5.04-7.105-3.175-4.383-6.149-8.06-8.669-11.084-5.292-5.945-8.518-9.018-8.518-9.018zM83.052 82.428s-.958 3.728-2.016 10.48a226.644 226.644 0 00-2.52 28.063c-.252 5.794 0 12.142 0 18.793 0 3.325.302 6.802.605 10.077l.454 5.038c0 1.764.403 3.577.655 5.391.352 3.628 1.008 7.255 1.512 10.984.504 3.728 1.26 7.406 2.066 11.185.806 3.779 1.563 7.507 2.57 11.236l1.412 5.643 1.663 5.592c2.117 7.457 4.687 14.813 7.358 21.967 1.361 3.578 2.924 7.054 4.335 10.531 1.411 3.476 3.074 6.751 4.586 10.076 3.176 6.55 6.401 12.798 9.778 18.592.807 1.461 1.663 2.872 2.47 4.282a79.079 79.079 0 002.52 4.081 221.323 221.323 0 005.04 7.709l4.737 6.903c1.412 2.217 2.924 4.232 4.335 6.147 2.873 3.778 5.04 7.204 7.409 9.774l6.753 8.364-6.854-8.263c-2.218-2.57-4.586-5.946-7.51-9.724-2.923-3.779-5.846-8.213-9.223-12.999-1.613-2.419-3.175-5.039-5.04-7.659-.806-1.36-1.663-2.72-2.52-4.081-.857-1.36-1.663-2.821-2.47-4.282-3.427-5.794-6.653-12.042-10.08-18.592-1.512-3.325-3.225-6.65-4.687-10.077-1.462-3.426-3.024-6.952-4.335-10.53-2.772-7.154-5.342-14.51-7.51-22.017l-1.612-5.593c-.454-1.915-.958-3.779-1.411-5.693-1.008-3.729-1.714-7.507-2.52-11.286-.807-3.779-1.411-7.507-2.016-11.185-.605-3.678-1.16-7.407-1.512-11.034l-.605-5.391c0-1.764-.252-3.578-.403-5.291-.353-3.527-.403-6.953-.605-10.076v-18.894c.337-9.406 1.28-18.78 2.822-28.064 1.361-6.449 2.37-10.177 2.37-10.177z" fill="#fff"/><path d="M192.522 34.311a121.08 121.08 0 0110.08 7.155 187.913 187.913 0 0123.689 22.27 168.52 168.52 0 0125.603 38.039 138.062 138.062 0 019.173 24.184c1.159 4.283 2.167 8.616 2.923 13.049.756 4.434 1.361 8.817 2.117 13.251 1.562 8.817 2.268 17.786 3.276 26.552 0 2.217.454 4.384.605 6.55.151 2.167.252 4.384.353 6.55.252 4.283.504 8.565.756 12.747s0 8.364 0 12.395v11.84c0 3.829 0 7.608-.303 11.235v5.341c0 1.747-.1 3.426-.302 5.038-.454 6.701-.756 12.898-1.361 18.34-.605 5.441-.907 10.077-1.411 14.057-.907 7.809-1.462 12.243-1.462 12.243s.504-4.484 1.361-12.243c.403-3.93.756-8.666 1.21-14.108.453-5.441.806-11.588 1.26-18.289 0-1.713 0-3.426.252-5.038v-5.341c0-3.627 0-7.356.302-11.235.303-3.88 0-7.81 0-11.84 0-4.031 0-8.163-.252-12.344-.252-4.182-.554-8.465-.806-12.798 0-2.166 0-4.282-.404-6.499-.403-2.217-.453-4.333-.655-6.55-.957-8.767-1.713-17.685-3.326-26.502-.706-4.434-1.411-8.868-2.067-13.251a124.18 124.18 0 00-2.872-12.999 138.125 138.125 0 00-8.972-24.184 164.594 164.594 0 00-25.2-37.99 189.674 189.674 0 00-23.487-22.37 117.334 117.334 0 00-10.08-7.255z" fill="#fff"/><path d="M234.103 37.385a67.154 67.154 0 0110.735 5.038 106.742 106.742 0 0124.646 18.894 122.839 122.839 0 0124.444 36.377 144.5 144.5 0 018.014 23.227 220.097 220.097 0 014.485 25.191 367.365 367.365 0 012.42 25.545c.302 4.182.353 8.414.504 12.545.151 4.132 0 8.213 0 12.244 0 4.03-.252 8.011-.655 11.89l-.252 5.895c-.252 1.915-.504 3.728-.706 5.593-.403 3.678-1.109 7.154-1.663 10.631-.555 3.476-1.412 6.65-2.117 9.824-1.613 6.248-3.276 11.891-5.04 16.829l-1.21 3.577-1.31 3.275c-.807 2.116-1.563 4.081-2.369 5.794-.806 1.713-1.411 3.224-1.966 4.585l-1.562 3.375-1.31 2.772s.453-.958 1.26-2.822c.453-.907.957-2.015 1.562-3.376l1.915-4.585c.756-1.763 1.462-3.678 2.268-5.794l1.26-3.325c.403-1.159.807-2.318 1.21-3.577 1.713-5.039 3.326-10.631 5.04-16.828.739-3.191 1.445-6.55 2.117-10.077.504-3.426 1.26-6.953 1.613-10.631 0-1.814.453-3.678.705-5.542l.454-5.694c.353-3.879.403-7.809.605-11.84.201-4.03 0-8.111 0-12.243 0-4.131-.756-7.809-1.059-12.294-.504-8.414-1.361-16.928-2.47-25.443a219.276 219.276 0 00-4.384-25.192 145.349 145.349 0 00-7.964-23.428 121.88 121.88 0 00-24.242-36.327 109.686 109.686 0 00-24.445-19.045 66.342 66.342 0 00-10.533-5.038zM44.647 144.853v6.902c0 2.117.302 5.039.655 8.062a740.9 740.9 0 001.31 10.429c.303 1.915.706 3.88 1.059 5.895.353 2.015.706 4.182 1.21 6.298l1.511 6.6c.555 2.268 1.21 4.535 1.815 6.852 1.21 4.686 2.822 9.372 4.385 14.158.705 2.419 1.713 5.039 2.62 7.155l2.722 7.154a904.516 904.516 0 006.099 14.057l6.753 13.503c2.37 4.182 4.688 8.213 6.905 12.042 1.008 1.914 2.268 3.678 3.377 5.441l3.226 5.038c2.117 3.225 3.931 6.248 5.846 8.717 1.915 2.469 3.427 4.736 4.738 6.55l4.183 5.743-4.284-5.743c-1.31-1.814-2.974-3.981-5.04-6.5s-3.83-5.441-5.947-8.615a214.46 214.46 0 00-3.327-5.039c-1.159-1.713-2.368-3.527-3.427-5.441l-6.754-12.193-6.753-13.049c-2.05-4.736-4.066-9.422-6.048-14.057l-2.722-7.205c-.857-2.419-1.865-4.787-2.57-7.205-1.512-4.787-3.125-9.523-4.284-14.208-.605-2.318-1.26-4.585-1.764-6.852-.505-2.268-1.008-4.485-1.462-6.651a194.89 194.89 0 01-1.21-6.298c-.352-2.015-1.108-4.031-1.108-5.945-.505-3.829-.958-7.306-1.16-10.43-.201-3.123-.403-5.844-.504-8.111-.1-2.268 0-3.981 0-5.039 0-1.058-.05-2.015-.05-2.015z" fill="#fff"/><path d="M82.246 84.14s2.47-1.209 6.905-3.174c2.167-1.007 5.04-2.166 7.963-3.476a176.435 176.435 0 0110.483-4.283l5.998-2.368 6.502-2.368c4.435-1.713 9.172-3.275 14.061-5.038 4.889-1.764 10.08-3.275 15.12-5.038l7.964-2.016c2.671-.806 5.04-1.562 7.963-2.217 5.393-1.36 10.735-2.77 16.027-3.88l7.913-1.712c2.621-.605 5.04-1.008 7.762-1.461l7.51-1.36c2.419-.454 5.04-.706 7.207-1.059 4.738-.604 9.123-1.41 13.255-1.662l11.29-1.008c3.377 0 6.3-.252 8.719-.302h7.56l-7.56.352-8.719.454-11.239 1.159c-4.133.302-8.518 1.108-13.205 1.763-2.369.353-5.04.605-7.258 1.058l-7.459 1.41c-2.52.505-5.04.908-7.762 1.512l-7.862 1.764c-5.04 1.108-10.635 2.62-15.977 3.98-2.672.605-5.343 1.36-7.964 2.116l-7.862 2.267c-5.04 1.562-10.332 3.124-15.12 4.737-4.788 1.612-9.677 3.224-14.112 5.038l-6.502 2.368-6.048 2.267c-3.831 1.461-7.359 2.973-10.484 4.182l-8.064 3.325c-4.536 1.512-7.005 2.67-7.005 2.67zM47.67 136.489s3.73-2.217 9.779-5.492c6.048-3.275 15.12-8.464 26.41-13.805a593.852 593.852 0 0118.093-8.414c6.452-2.872 13.357-5.693 20.564-8.565a542.156 542.156 0 0122.277-8.313l5.746-1.965 5.846-1.915c3.881-1.31 7.862-2.469 11.794-3.678 3.931-1.21 7.913-2.217 11.894-3.376l11.844-3.023 11.744-2.67c3.881-.806 7.711-1.663 11.491-2.368l11.189-2.368 10.786-1.663 10.08-1.31c3.276-.403 6.501-.655 9.576-.957l4.486-.403 4.334-.302 8.165-.403h12.953l-12.953.504-7.963.554-4.335.302-4.485.454c-3.075.352-6.301.604-9.577 1.007l-10.08 1.31-10.735 1.713c-3.679.605-7.359 1.36-11.189 2.016l-11.642 2.216-11.693 2.721-11.845 3.073c-3.931 1.16-7.912 2.217-11.844 3.427-3.931 1.209-7.862 2.317-11.743 3.627l-5.846 1.864-5.746 1.965c-7.711 2.62-15.12 5.391-22.328 8.163-7.207 2.771-14.061 5.693-20.563 8.514-6.502 2.822-12.55 5.643-18.094 8.314a590.546 590.546 0 00-26.56 13.553c-6.4 3.476-9.828 5.693-9.828 5.693zm-8.517 48.066s3.881-2.771 10.937-7.154c7.056-4.384 17.338-10.43 29.989-16.98 6.35-3.325 13.305-6.701 20.714-10.076 7.409-3.376 15.12-6.953 23.537-10.329 8.417-3.376 16.834-6.651 25.654-10.077l13.356-4.635c4.536-1.411 9.022-2.973 13.608-4.283 4.587-1.31 9.123-2.72 13.709-3.93l6.905-1.763 6.804-1.663 6.804-1.662 6.754-1.512 6.703-1.461 6.603-1.31 6.653-1.259 6.451-1.059c4.234-.705 8.366-1.461 12.399-1.964 4.032-.504 8.013-1.21 11.844-1.613l10.836-1.058c3.528-.403 6.955-.604 10.08-.907 3.125-.302 6.35-.554 9.223-.655 5.796 0 10.836-.604 15.12-.705l13.105-.252-13.054.403c-4.183 0-9.224.504-15.12.857-2.873 0-5.948.453-9.173.755-3.226.303-6.653.504-10.08.907l-11.038 1.31c-3.831.403-7.762 1.058-11.794 1.613-4.032.554-8.165 1.309-12.398 2.015l-6.401.907-6.502 1.31-6.602 1.31-6.653 1.461-6.754 1.511-6.754 1.713-7.056 1.562-6.804 1.864c-4.586 1.21-9.122 2.62-13.709 3.981-4.586 1.36-9.072 2.821-13.558 4.232-4.485 1.411-8.971 3.023-13.406 4.535-8.77 3.174-17.388 6.398-25.654 9.824a1100.258 1100.258 0 00-23.537 10.077c-7.409 3.275-14.364 6.802-20.715 10.077-12.7 6.499-23.033 12.394-30.24 16.727-7.207 4.333-10.786 7.356-10.786 7.356zm3.931 33.102l3.276-1.662c2.017-1.059 5.04-2.52 8.871-4.434 3.83-1.915 8.518-4.132 13.961-6.55 5.443-2.419 11.592-5.038 18.346-7.961 3.326-1.41 6.905-2.771 10.584-4.282a316.962 316.962 0 0111.39-4.434l12.097-4.484c4.132-1.562 8.416-2.922 12.701-4.484a550.649 550.649 0 0112.852-4.484l13.658-4.333 6.905-2.167 6.955-2.015 14.062-4.081c9.425-2.57 18.9-5.039 28.224-7.306l27.519-6.298c8.971-1.864 17.691-3.476 25.906-5.038l6.099-1.21 5.896-.957 11.29-1.864 10.383-1.663 5.04-.755 4.536-.605 15.12-1.915 13.306-1.713-13.306 1.814-15.12 2.116-4.536.605-5.04.806-10.383 1.713-11.239 1.915-5.947.957-6.049 1.209c-8.265 1.663-16.934 3.325-25.905 5.038l-27.469 6.349c-9.273 2.418-18.749 4.786-28.174 7.406l-14.061 4.031-7.006 1.965-6.703 2.418-13.609 4.283c-4.485 1.36-8.87 2.973-13.204 4.434-4.335 1.461-8.619 2.872-12.701 4.433l-12.147 4.434c-3.931 1.411-7.711 2.973-11.39 4.434-3.68 1.461-7.258 2.771-10.585 4.232-6.753 2.822-12.953 5.391-18.396 7.81-5.443 2.418-10.08 4.635-14.011 6.398-3.931 1.764-6.855 3.326-8.87 4.384l-3.126 1.511zm9.929 25.645l12.802-3.224 33.668-8.616c27.871-7.205 64.916-17.08 101.758-27.761 18.447-5.038 36.843-10.782 53.979-16.173l12.601-4.081c4.132-1.31 8.165-2.62 12.045-3.981l11.341-3.879 10.584-3.829c3.376-1.21 6.552-2.469 9.626-3.628a353.689 353.689 0 008.669-3.376l7.56-3.174c2.319-1.007 4.435-1.914 6.3-2.821l5.04-2.368 3.68-1.915-3.629 1.965-5.04 2.418c-1.916.958-4.032 1.865-6.351 2.923l-7.51 3.224c-2.721 1.109-5.544 2.318-8.618 3.477-3.074 1.159-6.3 2.469-9.677 3.678s-6.854 2.569-10.534 3.829c-3.679 1.259-7.409 2.62-11.34 3.93s-7.913 2.721-11.995 4.031c-4.083 1.309-8.367 2.72-12.6 4.131-17.136 5.441-35.281 10.984-53.929 16.324-36.893 10.581-73.988 20.154-101.86 27.459-13.96 3.527-25.603 6.349-33.768 8.364l-12.802 3.073zM76.6 274.238s4.285 0 11.795-1.058a694.36 694.36 0 0013.557-1.562c5.192-.655 11.139-1.411 17.54-2.368l10.08-1.461 10.685-1.764 5.544-.957 5.695-1.058 11.542-2.015 12.096-2.519c4.032-.857 8.215-1.663 12.298-2.671 8.316-2.015 16.733-3.879 25.2-6.197l12.499-3.275c4.184-1.108 8.216-2.418 12.349-3.577l12.096-3.628 11.693-3.879 11.289-3.779 10.685-4.232 10.08-3.779 2.42-.907 2.368-1.008 4.536-1.965 16.28-6.852 12.298-5.895 10.735-5.038-10.685 5.038-12.247 6.046-16.229 7.004-4.536 1.965-2.369 1.007-2.419.907-10.081 3.88-10.684 4.03-11.391 4.132-11.743 3.93-12.096 3.678c-4.083 1.159-8.165 2.469-12.298 3.627l-12.5 3.124c-8.366 2.318-16.783 4.081-25.2 6.097-4.133 1.007-8.266 1.763-12.348 2.62l-12.096 2.519-11.693 2.166-5.695 1.008-5.595.907-10.685 1.713-10.08 1.461c-6.401.957-12.348 1.612-17.539 2.267l-13.558 1.411c-7.358.655-11.592.907-11.592.907zm39.817 28.517s3.428 0 9.425-.504c2.974 0 6.603-.504 10.736-.907 4.132-.403 8.82-.907 13.91-1.612 5.091-.705 10.584-1.461 16.38-2.368 2.924-.403 5.897-1.008 8.921-1.562 3.024-.554 6.149-1.058 9.274-1.763l9.576-2.016 5.04-1.108 5.04-1.209 9.475-2.519c3.327-.857 6.603-1.865 10.081-2.822 3.477-.957 6.602-1.814 10.08-2.872l9.677-3.174c6.4-1.965 12.6-4.434 18.547-6.701 5.947-2.267 11.693-4.736 17.086-7.054l7.913-3.375 7.157-3.578c4.536-2.317 8.82-4.282 12.499-6.247l9.425-5.039 8.215-4.635-8.165 4.736-9.777 5.492c-3.68 2.015-7.913 4.031-12.5 6.399l-7.157 3.577-7.862 3.426c-5.393 2.368-10.987 5.038-17.036 7.155-6.048 2.116-12.146 4.786-18.597 6.801l-9.677 2.872c-3.226 1.058-6.552 1.965-10.08 2.922-3.528.958-6.552 1.915-10.081 2.772l-10.08 2.418-5.04 1.209c-1.613.403-3.276.705-5.04 1.058l-9.525 2.016c-3.176.654-6.301 1.108-9.325 1.713a150.495 150.495 0 01-8.92 1.511c-5.847.857-11.341 1.713-16.431 2.267-5.091.555-9.778 1.109-13.911 1.461l-9.828.807c-5.997.403-9.425.453-9.425.453z" fill="#fff"/><path d="M346.194 152.41c-.504 94.822-122.373 136.036-199.587 112.457-87.041-26.25-101.708-107.922-95.76-136.691a131.66 131.66 0 00-5.545 96.333c24.495 73.51 110.478 110.844 191.976 83.889 71.871-23.932 116.224-90.237 108.916-155.988z" fill="#60C9E0" opacity=".6"/><path d="M170.598 23.025S-2.679 58.294 30.333 207.278c24.596 94.469 99.088 149.74 219.646 109.836l10.08 25.192S123.524 394.453 46.36 295.601C-22.79 207.933-33.424 58.344 163.19 0l7.409 23.025z" fill="#FFCB2A"/><path d="M228.911 331.474a.756.756 0 01-.705-.555l-2.319-7.053a.762.762 0 01.504-.958.81.81 0 011.008.504l2.268 7.054a.805.805 0 01-.504.957l-.252.051zm-30.643 4.837a.757.757 0 01-.756-.706l-.756-6.65a.757.757 0 01.467-.699.752.752 0 01.823.164.748.748 0 01.222.535l.756 6.6a.708.708 0 01-.361.776.706.706 0 01-.294.08l-.101-.1zm-34.021 2.015a.808.808 0 01-.806-.756v-7.154a.806.806 0 01.806-.807.807.807 0 01.756.807v7.154a.752.752 0 01-.756.756zm-31.5-6.399h-.302a.705.705 0 01-.403-1.008l2.318-5.391a.808.808 0 011.008-.403.756.756 0 01.353 1.008l-2.268 5.391a.755.755 0 01-.706.403zm-27.922-10.731a.812.812 0 01-.453 0 .758.758 0 010-1.059l3.578-5.038a.757.757 0 011.058 0 .806.806 0 010 1.058l-3.628 5.039a.715.715 0 01-.555 0zM76.6 301.747a.796.796 0 01-.453 0 .804.804 0 010-1.108l4.083-5.341a.81.81 0 011.108 0 .757.757 0 010 1.058l-4.132 5.391a.65.65 0 01-.605 0zm-22.226-23.529a.713.713 0 01-.554-.302.761.761 0 01-.18-.857.761.761 0 01.18-.252l5.393-4.333a.809.809 0 011.058 0 .859.859 0 010 1.109l-5.393 4.333a.906.906 0 01-.504.302zM35.978 249.55a.807.807 0 01-.706-.403.807.807 0 01.303-1.058l7.46-4.081a.758.758 0 01.92-.015.759.759 0 01.067 1.158.773.773 0 01-.282.167l-7.46 4.131-.302.101zm-15.876-41.466a.753.753 0 01-.756-.705.757.757 0 01.655-.806l9.727-1.26a.756.756 0 010 1.512l-9.727 1.259h.1zm6.098-45.849l-8.517-1.007a.756.756 0 010-1.512l8.517 1.008a.803.803 0 01.655.856.757.757 0 01-.655.655zm6.956-32.497h-.303l-8.215-3.779a.748.748 0 01-.415-.419.75.75 0 01.012-.589.805.805 0 011.008-.403l8.215 3.577a.756.756 0 01-.302 1.462v.151zM52.358 94.67a.554.554 0 01-.403 0l-7.963-5.038a.806.806 0 010-1.058.756.756 0 011.058-.252l7.963 5.039a.806.806 0 01.252 1.058.756.756 0 01-.907.252zm18.396-21.21a.705.705 0 01-.554-.303l-5.645-6.903a.806.806 0 010-1.058.756.756 0 011.109 0L71.56 72.2a.705.705 0 010 1.058.655.655 0 01-.807.201zm30.241-21.263a.809.809 0 01-.706-.403l-3.83-7.154a.806.806 0 01.302-1.058.704.704 0 011.008.352l4.032 7.155a.755.755 0 01-.302 1.008.506.506 0 01-.504.1zm37.901-18.692a.707.707 0 01-.706-.453l-3.326-8.465a.762.762 0 01-.012-.589.766.766 0 01.415-.419.807.807 0 011.008.454l3.327 8.464a.76.76 0 01-.454.958l-.252.05z" fill="#92612B"/><path d="M13.852 174.932c2.823 85.652 78.625 209.596 241.469 155.736l-5.342-13.554c-120.558 39.904-195.05-15.115-219.646-109.836C-2.679 58.344 170.598 23.025 170.598 23.025l-2.823-8.766c-27.216 6.197-155.939 41.97-153.923 160.673z" fill="#FFCB2A"/></svg>