<svg width="1677" height="672" viewBox="0 0 1677 672" fill="none" xmlns="http://www.w3.org/2000/svg">
<path d="M1696.11 544.497L1666.88 550.757V263.287L1696.11 257.027V544.497Z" fill="#A27C6D"/>
<path d="M1638.4 544.497L1667.72 550.757V263.287L1638.4 257.027V544.497Z" fill="#987263"/>
<path d="M833.628 430.637L438.781 514.294V231.537L833.628 147.845V430.637Z" fill="#A27C6D"/>
<path d="M1140.32 443.468L447.868 296.551L959.529 187.989L1651.99 334.871L1140.32 443.468Z" fill="#D1B9A4"/>
<path d="M945.103 191.05L950.723 189.846L1643.37 336.694L1637.75 337.898L945.103 191.05Z" fill="#C7AB93"/>
<path d="M1600.56 345.775L907.913 198.928L913.628 197.724L1606.27 344.571L1600.56 345.775Z" fill="#C7AB93"/>
<path d="M1538.64 358.916L845.993 212.068L851.614 210.898L1544.26 357.746L1538.64 358.916Z" fill="#C7AB93"/>
<path d="M1442.9 379.245L750.256 232.397L755.876 231.193L1448.52 378.041L1442.9 379.245Z" fill="#C7AB93"/>
<path d="M1471.1 373.26L778.452 226.412L784.073 225.208L1476.72 372.056L1471.1 373.26Z" fill="#C7AB93"/>
<path d="M1375.36 393.59L682.715 246.742L688.336 245.538L1380.98 392.386L1375.36 393.59Z" fill="#C7AB93"/>
<path d="M1341.54 400.745L648.898 253.897L654.518 252.727L1347.16 399.575L1341.54 400.745Z" fill="#C7AB93"/>
<path d="M1279.53 413.919L586.884 267.071L592.598 265.867L1285.24 412.715L1279.53 413.919Z" fill="#C7AB93"/>
<path d="M1204.12 429.915L511.474 283.067L517.095 281.863L1209.74 428.711L1204.12 429.915Z" fill="#C7AB93"/>
<path d="M1228.85 424.652L536.205 277.804L541.825 276.634L1234.56 423.448L1228.85 424.652Z" fill="#C7AB93"/>
<path d="M1191.75 432.563L499.015 285.715L504.729 284.511L1197.37 431.359L1191.75 432.563Z" fill="#C7AB93"/>
<path d="M1180.42 434.937L487.774 288.089L493.395 286.885L1186.04 433.733L1180.42 434.937Z" fill="#C7AB93"/>
<path d="M1145.57 442.332L452.833 295.519L458.547 294.315L1151.19 441.163L1145.57 442.332Z" fill="#C7AB93"/>
<path d="M1573.95 351.451L881.309 204.603L890.677 202.608L1583.32 349.422L1573.95 351.451Z" fill="#C7AB93"/>
<path d="M1515.69 363.8L823.042 216.952L832.504 214.957L1525.15 361.805L1515.69 363.8Z" fill="#C7AB93"/>
<path d="M1395.59 389.29L702.949 242.442L712.41 240.447L1405.05 387.295L1395.59 389.29Z" fill="#C7AB93"/>
<path d="M1321.03 405.113L628.382 258.265L643.09 255.135L1335.73 401.983L1321.03 405.113Z" fill="#C7AB93"/>
<path d="M1253.58 419.423L560.935 272.575L575.642 269.445L1268.29 416.293L1253.58 419.423Z" fill="#C7AB93"/>
<path d="M1168.15 656.705L1138.92 663V375.53L1168.15 369.235V656.705Z" fill="#A27C6D"/>
<path d="M1110.54 656.705L1139.76 663V375.53L1110.54 369.235V656.705Z" fill="#987263"/>
<path d="M1745.76 271.887L1165.9 394.828V380.587L1745.76 257.612V271.887Z" fill="#8D6959"/>
<path d="M0.936768 134.017L1209.65 390.253V371.437L0.936768 115.201V134.017Z" fill="#C7AB93"/>
<path d="M44.6838 157.133L1165.9 394.828V381L44.6838 143.305V157.133Z" fill="#987263"/>
<path d="M44.0282 430.637L438.781 514.294V231.537L44.0282 147.845V430.637Z" fill="#987263"/>
<path d="M57.0491 417.325L425.76 495.478V244.815L57.0491 166.662V417.325Z" fill="#C7AB93"/>
<path d="M57.0491 233.911L425.76 312.065V306.974L57.0491 228.82V233.911Z" fill="#987263"/>
<path d="M57.0491 295.725L425.76 373.914V368.788L57.0491 290.634V295.725Z" fill="#987263"/>
<path d="M425.76 254.034L57.0491 175.88V173.473L425.76 251.626V254.034Z" fill="#BCA08B"/>
<path d="M425.76 267.415L57.0491 189.261V186.854L425.76 265.007V267.415Z" fill="#BCA08B"/>
<path d="M425.76 274.089L57.0491 195.935V193.561L425.76 271.715V274.089Z" fill="#BCA08B"/>
<path d="M425.76 289.878L57.0491 211.724V209.316L425.76 287.47V289.878Z" fill="#BCA08B"/>
<path d="M425.76 316.158L57.0491 238.004V235.596L425.76 313.75V316.158Z" fill="#BCA08B"/>
<path d="M425.76 356.749L57.0491 278.595V276.221L425.76 354.375V356.749Z" fill="#BCA08B"/>
<path d="M425.76 344.812L57.0491 266.658V264.285L425.76 342.439V344.812Z" fill="#BCA08B"/>
<path d="M425.76 385.437L57.0491 307.283V304.875L425.76 383.029V385.437Z" fill="#BCA08B"/>
<path d="M425.76 399.781L57.0491 321.628V319.22L425.76 397.373V399.781Z" fill="#BCA08B"/>
<path d="M425.76 426.062L57.0491 347.908V345.5L425.76 423.654V426.062Z" fill="#BCA08B"/>
<path d="M425.76 458.053L57.0491 379.899V377.525L425.76 455.679V458.053Z" fill="#BCA08B"/>
<path d="M425.76 447.561L57.0491 369.407V366.999L425.76 445.153V447.561Z" fill="#BCA08B"/>
<path d="M425.76 463.316L57.0491 385.162V382.788L425.76 460.942V463.316Z" fill="#BCA08B"/>
<path d="M425.76 468.097L57.0491 389.943V387.57L425.76 465.724V468.097Z" fill="#BCA08B"/>
<path d="M425.76 492.933L57.0491 414.779V412.406L425.76 490.559V492.933Z" fill="#BCA08B"/>
<path d="M425.76 482.923L57.0491 404.769V402.361L425.76 480.515V482.923Z" fill="#BCA08B"/>
<path d="M425.76 301.195L57.0491 223.007V219.016L425.76 297.17V301.195Z" fill="#BCA08B"/>
<path d="M425.76 325.893L57.0491 247.739V243.715L425.76 321.868V325.893Z" fill="#BCA08B"/>
<path d="M425.76 376.837L57.0491 298.684V294.659L425.76 372.847V376.837Z" fill="#BCA08B"/>
<path d="M425.76 408.484L57.0491 330.33V324.07L425.76 402.224V408.484Z" fill="#BCA08B"/>
<path d="M425.76 437.069L57.0491 358.916V352.655L425.76 430.843V437.069Z" fill="#BCA08B"/>
<path d="M57.0491 357.574L425.76 435.728V430.603L57.0491 352.449V357.574Z" fill="#987263"/>
<path d="M178.079 207.837L304.73 234.668V225.93L178.079 199.065V207.837Z" fill="#987263"/>
<path d="M178.079 275.533L304.73 302.364V293.627L178.079 266.762V275.533Z" fill="#987263"/>
<path d="M178.079 338.827L304.73 365.692V356.921L178.079 330.055V338.827Z" fill="#987263"/>
<path d="M178.079 399.609L304.73 426.44V417.703L178.079 390.838V399.609Z" fill="#987263"/>
<path d="M1210.96 371.953L0.00012207 115.236L542.949 0L1753.91 256.717L1210.96 371.953Z" fill="#EAD6C5"/>
<path d="M1753.72 274.88L1209.36 390.081L1209.65 371.781L1754 256.58L1753.72 274.88Z" fill="#E3CFBA"/>
<path d="M1110.54 436.829V444.775L448.055 304.291V296.345L1110.54 436.829Z" fill="#C7AB93"/>
<path d="M1168.15 436.519L1651.8 334.08V342.301L1168.15 444.706V436.519Z" fill="#E3CFBA"/>
<path d="M542.294 0.137573L1753.25 256.855L1747.63 258.059L536.673 1.34153L542.294 0.137573Z" fill="#DDC9B8"/>
<path d="M526.556 3.47424L1737.51 260.226L1731.8 261.395L520.842 4.6782L526.556 3.47424Z" fill="#DDC9B8"/>
<path d="M489.366 11.386L1700.32 268.103L1694.7 269.307L483.746 12.5555L489.366 11.386Z" fill="#DDC9B8"/>
<path d="M427.353 24.5262L1638.4 281.244L1632.69 282.447L421.732 25.6958L427.353 24.5262Z" fill="#DDC9B8"/>
<path d="M331.615 44.8559L1542.67 301.573L1537.05 302.777L325.995 46.0255L331.615 44.8559Z" fill="#DDC9B8"/>
<path d="M359.812 38.8705L1570.77 295.588L1565.15 296.792L354.191 40.04L359.812 38.8705Z" fill="#DDC9B8"/>
<path d="M264.074 59.1657L1475.03 315.917L1469.41 317.121L258.454 60.3697L264.074 59.1657Z" fill="#DDC9B8"/>
<path d="M230.257 66.355L1441.31 323.072L1435.59 324.276L224.636 67.559L230.257 66.355Z" fill="#DDC9B8"/>
<path d="M168.337 79.4954L1379.29 336.247L1373.67 337.417L162.716 80.6993L168.337 79.4954Z" fill="#DDC9B8"/>
<path d="M92.9271 95.5251L1303.88 352.242L1298.26 353.446L87.213 96.7291L92.9271 95.5251Z" fill="#DDC9B8"/>
<path d="M117.658 90.2621L1328.61 346.979L1322.99 348.183L112.037 91.466L117.658 90.2621Z" fill="#DDC9B8"/>
<path d="M80.4681 98.1394L1291.43 354.891L1285.8 356.095L74.8475 99.3434L80.4681 98.1394Z" fill="#DDC9B8"/>
<path d="M69.2268 100.547L1280.18 357.265L1274.56 358.469L63.6063 101.717L69.2268 100.547Z" fill="#DDC9B8"/>
<path d="M10.6791 112.965L1221.64 369.717L1216.02 370.886L5.05859 114.169L10.6791 112.965Z" fill="#DDC9B8"/>
<path d="M34.2855 107.943L1245.34 364.695L1239.62 365.864L28.665 109.147L34.2855 107.943Z" fill="#DDC9B8"/>
<path d="M466.509 16.2361L1677.47 272.953L1668 274.949L457.048 18.2313L466.509 16.2361Z" fill="#DDC9B8"/>
<path d="M408.242 28.5853L1619.2 285.303L1609.83 287.332L398.781 30.5804L408.242 28.5853Z" fill="#DDC9B8"/>
<path d="M288.149 54.0747L1499.11 310.792L1489.74 312.822L278.688 56.0698L288.149 54.0747Z" fill="#DDC9B8"/>
<path d="M218.829 68.7974L1429.88 325.515L1415.08 328.645L204.121 71.8932L218.829 68.7974Z" fill="#DDC9B8"/>
<path d="M151.475 83.0728L1362.43 339.824L1347.72 342.955L136.674 86.2031L151.475 83.0728Z" fill="#DDC9B8"/>
<path style="mix-blend-mode:overlay" opacity="0.2" d="M0.93689 134.155C0.93689 133.536 1.4989 115.683 0.00012207 115.373L542.949 0L1754 256.683V274.983L1696.3 287.194V544.6L1668.19 550.688V550.86H1667.72V550.688L1639.62 544.6V345.087L1169.36 444.844V656.843L1141.26 662.931L1113.16 656.843V444.775L836.251 386.056V430.775L441.404 514.501L46.6511 430.775C46.6511 430.362 46.651 147.914 47.3068 148.121V143.305L0.93689 134.155ZM1561.31 315.642L1638.4 331.982V299.268L1561.31 315.642Z" fill="url(#paint0_linear_33_81)"/>
<g filter="url(#filter0_d_33_81)">
<path d="M825.512 107.554L943.155 146.966L947.022 151.689L956.656 150.731L1084.88 179.787L1084.33 184.187L964.176 301.976L957.48 304.669L837.729 267.321L834.116 263.87L824.219 263.57L698.117 232.447L698.663 228.036L818.816 110.247L825.512 107.554Z" fill="#256277"/>
<path d="M824.629 104.124L942.272 143.536L946.136 148.248L955.774 147.301L1083.99 176.345L1083.45 180.757L963.291 298.534L956.595 301.227L836.846 263.891L835.858 259.764L823.334 260.129L697.231 229.006L697.777 224.594L817.933 106.817L824.629 104.124Z" fill="#5599BF"/>
<path d="M697.231 229.006L697.777 224.594L813.875 110.794L854.717 269.465L836.846 263.891L835.858 259.764L823.334 260.129L697.231 229.006Z" fill="#72BBDB"/>
<path d="M984.762 153.867L1083.99 176.345L1083.45 180.757L1010.17 252.584L984.762 153.867Z" fill="#72BBDB"/>
<path d="M701.453 230.054L823.947 112.73L942.272 143.536L946.136 148.248L955.774 147.301L1071.09 182.282L951.487 299.646L836.846 263.891L835.858 259.764L823.334 260.129L701.453 230.054Z" fill="#3C809E"/>
<path d="M943.46 151.489C930.02 114.341 881.613 105.913 825.138 112.252L708.14 226.946L838.363 255.143L943.46 151.489Z" fill="#FFF7D2"/>
<path opacity="0.5" d="M725.227 225.138L834.858 111.296L825.138 112.252L708.14 226.946L725.227 225.138Z" fill="#EFD0A3"/>
<path opacity="0.5" d="M850.843 219.508C887.527 193.695 917.617 165.345 937.359 139.659C939.898 143.32 941.949 147.297 943.46 151.489L838.363 255.143L805.268 247.978C820.976 239.341 836.191 229.837 850.843 219.508Z" fill="#EFD0A3"/>
<path d="M942.504 151.208C960.703 127.207 1005.67 140.717 1059.76 172.814C1063.58 175.378 1066.89 178.172 1070.8 180.661L953.83 295.349L840.287 242.352L942.504 151.208Z" fill="#FFF7D2"/>
<path opacity="0.5" d="M934.11 286.165L1059.77 172.825L1070.8 180.661L953.795 295.358L934.11 286.165Z" fill="#EFD0A3"/>
<path d="M708.141 226.946L708.971 226.119C763.799 220.106 822.333 212.893 836.509 247.656C848.538 221.476 895.829 259.042 952.688 294.968L837.324 254.92L708.141 226.946Z" fill="#E2BE8D"/>
<path d="M830.735 253.118C829.876 249.781 831.889 247.827 835.229 248.783C837.014 249.4 838.63 250.426 839.948 251.779C841.265 253.131 842.249 254.773 842.819 256.574C843.681 259.923 841.665 261.866 838.328 260.92C836.543 260.3 834.927 259.272 833.608 257.918C832.29 256.563 831.306 254.92 830.735 253.118Z" fill="#3C809E"/>
<path d="M941.065 286.338L979.101 250.899L943.617 288.479L941.065 286.338Z" fill="#FFF7D2"/>
<path d="M993.599 239.988L1063.09 175.111L1066.53 176.485L993.599 239.988Z" fill="#FFF7D2"/>
<path d="M963.716 276.2L987.041 248.033L1019.85 223.99L963.716 276.2Z" fill="#FFF7D2"/>
<path d="M934.51 291.105C934.51 291.105 883.775 266.956 871.848 263.73C854.474 259.035 854.715 259.157 842.205 257.002L934.51 291.105Z" fill="#3C809E"/>
<path d="M840.158 256.633C840.158 256.633 788.843 241.149 776.568 239.621C758.715 237.405 729.965 230.668 717.314 230.255L840.158 256.633Z" fill="#3C809E"/>
<path d="M832.621 253.627C832.033 253.631 831.408 253.682 830.889 253.717C830.839 253.521 830.785 253.314 830.735 253.119C829.876 249.781 831.889 247.827 835.229 248.783C836.816 249.335 838.272 250.207 839.507 251.346C840.742 252.485 841.729 253.866 842.407 255.403C839.32 254.083 835.975 253.476 832.621 253.627Z" fill="#256277"/>
<path d="M845.08 250.101C845.08 250.101 863.164 248.588 895.688 267.031C895.688 267.031 864.351 243.091 845.08 250.101Z" fill="#C99D67"/>
<path d="M883.485 254.721L909.382 272.403L929.705 283.31L883.485 254.721Z" fill="#C99D67"/>
<path d="M827.614 244.951C827.614 244.951 816.563 222.76 759.758 226.104C759.758 226.104 806.174 225.459 827.614 244.951Z" fill="#C99D67"/>
<path d="M773.311 230.641L733.494 229.882L725.857 227.823L773.311 230.641Z" fill="#C99D67"/>
<path opacity="0.5" d="M933.104 283.257L1034.26 189.919L928.465 281.162L933.104 283.257Z" fill="#EFD0A3"/>
</g>
<defs>
<filter id="filter0_d_33_81" x="671" y="46" width="440.109" height="324.793" filterUnits="userSpaceOnUse" color-interpolation-filters="sRGB">
<feFlood flood-opacity="0" result="BackgroundImageFix"/>
<feColorMatrix in="SourceAlpha" type="matrix" values="0 0 0 0 0 0 0 0 0 0 0 0 0 0 0 0 0 0 127 0" result="hardAlpha"/>
<feOffset dy="4"/>
<feGaussianBlur stdDeviation="2"/>
<feComposite in2="hardAlpha" operator="out"/>
<feColorMatrix type="matrix" values="0 0 0 0 0 0 0 0 0 0 0 0 0 0 0 0 0 0 0.25 0"/>
<feBlend mode="normal" in2="BackgroundImageFix" result="effect1_dropShadow_33_81"/>
<feBlend mode="normal" in="SourceGraphic" in2="effect1_dropShadow_33_81" result="shape"/>
</filter>
<linearGradient id="paint0_linear_33_81" x1="1294.7" y1="39.6273" x2="1137.38" y2="797.818" gradientUnits="userSpaceOnUse">
<stop stop-color="#FFD7B7"/>
<stop offset="1" stop-color="#6C001B"/>
</linearGradient>
</defs>
</svg>
