<svg xmlns="http://www.w3.org/2000/svg" viewBox="0 0 67.57 82.79"><defs><style>.cls-1{isolation:isolate;}.cls-2{fill:#651e18;}.cls-3{fill:#ac4641;}.cls-11,.cls-4{fill:#fff;mix-blend-mode:overlay;}.cls-4{opacity:0.5;}.cls-5{fill:#51b7b7;}.cls-6{fill:#67d6df;}.cls-7{fill:#fff1da;}.cls-8{fill:#e5d5bd;}.cls-9{fill:#cc6916;}.cls-10{fill:#fc891f;}.cls-11{opacity:0.2;}</style></defs><title>books1</title><g class="cls-1"><g id="Слой_2" data-name="Слой 2"><g id="Objects"><path class="cls-2" d="M31.53,6.29,21.39,82.78l-3.34-.44L3.52,79.05,13.78,1.67l14.71,2L30.87,5A1.33,1.33,0,0,1,31.53,6.29Z"/><path class="cls-3" d="M7.12,2.07H23.35a0,0,0,0,1,0,0V81.49a0,0,0,0,1,0,0H5.14a0,0,0,0,1,0,0V4.05a2,2,0,0,1,2-2Z" transform="translate(5.62 -1.51) rotate(7.56)"/><rect class="cls-4" x="21.32" y="3.1" width="1.31" height="79.42" transform="translate(5.82 -2.52) rotate(7.56)"/><path class="cls-5" d="M45.8,21.27V82.78H43.11L31.29,81.7V19.48H43.11l2,.8A1.07,1.07,0,0,1,45.8,21.27Z"/><path class="cls-6" d="M30.58,19.48H43.11a0,0,0,0,1,0,0V82.79a0,0,0,0,1,0,0H28.6a0,0,0,0,1,0,0V21.45A2,2,0,0,1,30.58,19.48Z"/><rect class="cls-4" x="41.55" y="19.48" width="1.04" height="63.31"/><rect class="cls-7" x="28.6" y="21.94" width="14.51" height="1.7"/><polygon class="cls-8" points="45.8 23.01 45.8 24.72 43.11 23.64 43.11 21.94 45.8 23.01"/><rect class="cls-7" x="28.6" y="25.5" width="14.51" height="1.7"/><polygon class="cls-8" points="45.8 26.57 45.8 28.28 43.11 27.2 43.11 25.5 45.8 26.57"/><path class="cls-9" d="M67.57,2.35V82.77l-3.52,0L48.59,81.37V0H64.05L66.7,1.06A1.39,1.39,0,0,1,67.57,2.35Z"/><path class="cls-10" d="M47.05,0h17a0,0,0,0,1,0,0V82.79a0,0,0,0,1,0,0h-19a0,0,0,0,1,0,0V2a2,2,0,0,1,2-2Z"/><rect class="cls-11" x="62.01" width="1.36" height="82.79"/><rect class="cls-7" x="45.08" y="3.22" width="18.98" height="2.23"/><polygon class="cls-8" points="67.57 4.63 67.57 6.85 64.06 5.45 64.06 3.22 67.57 4.63"/><rect class="cls-7" x="45.08" y="7.88" width="18.98" height="2.23"/><polygon class="cls-8" points="67.57 9.28 67.57 11.51 64.06 10.1 64.06 7.88 67.57 9.28"/></g></g></g></svg>