<svg id="Слой_1" data-name="Слой 1" xmlns="http://www.w3.org/2000/svg" viewBox="0 0 61.15 39.21"><defs><style>.cls-1{fill:#fff;stroke:#000;stroke-miterlimit:10;}</style></defs><title>logo</title><path class="cls-1" d="M25.34,24.23h7.2V62.44h-7.2Zm2.6,0h23v6.94h-23Zm0,15.77H48.05v6.93H27.94Zm0,15.5h23v6.94h-23Z" transform="translate(-24.84 -23.73)"/><path class="cls-1" d="M63.76,35.78a2.84,2.84,0,0,0-.1-.66l-.59.26Z" transform="translate(-24.84 -23.73)"/><path class="cls-1" d="M59.85,33.52l.81.47,1.69-.74a3.3,3.3,0,0,0-1.84-.56,3.26,3.26,0,1,0,2.38,5.48L58.6,35.69Z" transform="translate(-24.84 -23.73)"/><path class="cls-1" d="M76.5,29.5l-2.12.93a3.25,3.25,0,1,0-.84-2.17.28.28,0,0,0,0,.09l2-.85Z" transform="translate(-24.84 -23.73)"/><path class="cls-1" d="M73.52,55.67a3.11,3.11,0,0,0-1.06-.18,3.22,3.22,0,0,0-2.38,1l1.65,1.08Z" transform="translate(-24.84 -23.73)"/><path class="cls-1" d="M69.21,58.94a3.25,3.25,0,0,0,6.5-.2,3.11,3.11,0,0,0-.46-1.66L72,60.78Z" transform="translate(-24.84 -23.73)"/><path class="cls-1" d="M57.47,48.28l3,2a1.27,1.27,0,0,0,0-.2,3.24,3.24,0,1,0-1.12,2.46L56.1,50.37Z" transform="translate(-24.84 -23.73)"/><path class="cls-1" d="M63.66,35.12l10.72-4.69a3.1,3.1,0,0,1-.83-2.08l-11.2,4.9A3.22,3.22,0,0,1,63.66,35.12Z" transform="translate(-24.84 -23.73)"/><path class="cls-1" d="M79.05,47.49a3.26,3.26,0,0,0,.69,1.42l.61-.66Z" transform="translate(-24.84 -23.73)"/><path class="cls-1" d="M82.23,43.54a3.25,3.25,0,0,0-2.65,1.37l2.51,1.45,1-1,1.72,1.43-3,3.28a2.42,2.42,0,0,0,.47,0,3.26,3.26,0,1,0,0-6.52Z" transform="translate(-24.84 -23.73)"/><path class="cls-1" d="M79.58,44.91,63.76,35.78a.86.86,0,0,1,0,.16,3.24,3.24,0,0,1-.88,2.23l16.16,9.32A3.1,3.1,0,0,1,79,46.8,3.23,3.23,0,0,1,79.58,44.91Z" transform="translate(-24.84 -23.73)"/><path class="cls-1" d="M73.52,55.67a3.18,3.18,0,0,1,1.73,1.41L81.76,50a3.27,3.27,0,0,1-2-1.11Z" transform="translate(-24.84 -23.73)"/><path class="cls-1" d="M70.08,56.52,60.5,50.26a3.24,3.24,0,0,1-1.11,2.26l9.82,6.42a1.27,1.27,0,0,1,0-.2A3.21,3.21,0,0,1,70.08,56.52Z" transform="translate(-24.84 -23.73)"/><rect x="9.66" y="4.77" width="8" height="1"/><rect x="20.16" y="4.77" width="4" height="1"/><polygon points="14.16 27.27 12.16 24.99 10.16 27.27 10.16 19.27 14.16 19.27 14.16 27.27"/></svg>