<svg xmlns="http://www.w3.org/2000/svg" viewBox="0 0 67.57 82.79"><defs><style>.cls-4{fill:#fff;mix-blend-mode:overlay;opacity:.5}.cls-7{fill:#fff1da}.cls-8{fill:#e5d5bd}</style></defs><g style="isolation:isolate"><g id="Слой_2" data-name="Слой 2"><g id="Objects"><path d="M31.53 6.29L21.39 82.78l-3.34-.44-14.53-3.29L13.78 1.67l14.71 2L30.87 5a1.33 1.33 0 01.66 1.29z" fill="#651e18"/><path d="M7.12 2.07h16.23v79.42H5.14V4.05a2 2 0 012-2z" transform="rotate(7.56 14.237 41.776)" fill="#ac4641"/><path class="cls-4" transform="rotate(7.56 21.98 42.785)" d="M21.32 3.1h1.31v79.42h-1.31z"/><path d="M45.8 21.27v61.51h-2.69L31.29 81.7V19.48h11.82l2 .8a1.07 1.07 0 01.69.99z" fill="#51b7b7"/><path d="M30.58 19.48h12.53v63.31H28.6V21.45a2 2 0 011.98-1.97z" fill="#67d6df"/><path class="cls-4" d="M41.55 19.48h1.04v63.31h-1.04z"/><path class="cls-7" d="M28.6 21.94h14.51v1.7H28.6z"/><path class="cls-8" d="M45.8 23.01v1.71l-2.69-1.08v-1.7l2.69 1.07z"/><path class="cls-7" d="M28.6 25.5h14.51v1.7H28.6z"/><path class="cls-8" d="M45.8 26.57v1.71l-2.69-1.08v-1.7l2.69 1.07z"/><path d="M67.57 2.35v80.42h-3.52l-15.46-1.4V0h15.46l2.65 1.06a1.39 1.39 0 01.87 1.29z" fill="#cc6916"/><path d="M47.05 0h17v82.79h-19V2a2 2 0 012-2z" fill="#fc891f"/><path style="mix-blend-mode:overlay" opacity=".2" fill="#fff" d="M62.01 0h1.36v82.79h-1.36z"/><path class="cls-7" d="M45.08 3.22h18.98v2.23H45.08z"/><path class="cls-8" d="M67.57 4.63v2.22l-3.51-1.4V3.22l3.51 1.41z"/><path class="cls-7" d="M45.08 7.88h18.98v2.23H45.08z"/><path class="cls-8" d="M67.57 9.28v2.23l-3.51-1.41V7.88l3.51 1.4z"/></g></g></g></svg>