<svg xmlns="http://www.w3.org/2000/svg" viewBox="0 0 114.24 87.36"><defs><style>.cls-4{fill:#fff;mix-blend-mode:overlay;opacity:.5}.cls-5{fill:#fff1da}.cls-6{fill:#e5d5bd}</style></defs><g style="isolation:isolate"><g id="Слой_2" data-name="Слой 2"><g id="Objects"><path d="M23.73 2.48v84.87H20L3.71 85.86V0H20l2.78 1.11a1.48 1.48 0 01.95 1.37z" fill="#0e62aa"/><path d="M2 0h18v87.36H0V2a2 2 0 012-2z" fill="#1a81e6"/><path class="cls-4" d="M17.87 0h1.44v87.36h-1.44z"/><path class="cls-5" d="M0 3.4h20.03v2.35H0z"/><path class="cls-6" d="M23.73 4.88v2.35l-3.71-1.48V3.4l3.71 1.48z"/><path class="cls-5" d="M0 8.31h20.03v2.35H0z"/><path class="cls-6" d="M23.73 9.79v2.35l-3.71-1.48V8.31l3.71 1.48z"/><path d="M41.7 17.29v70.06h-3.06l-13.47-1.22V15.25h13.47l2.3.92a1.2 1.2 0 01.76 1.12z" fill="#651e18"/><path d="M24.08 15.25h14.56v72.11H22.11V17.23a2 2 0 011.97-1.98z" fill="#ac4641"/><path class="cls-4" d="M36.86 15.25h1.19v72.11h-1.19z"/><path d="M57.86 25.84v61.51h-2.69l-11.82-1.07V24.05h11.82l2 .81a1.06 1.06 0 01.69.98z" fill="#51b7b7"/><path d="M42.64 24.05h12.53v63.31H40.66V26a2 2 0 011.98-1.95z" fill="#67d6df"/><path class="cls-4" d="M53.61 24.05h1.04v63.31h-1.04z"/><path class="cls-5" d="M40.66 26.51h14.51v1.7H40.66z"/><path class="cls-6" d="M57.86 27.59v1.7l-2.69-1.07v-1.71l2.69 1.08z"/><path class="cls-5" d="M40.66 30.08h14.51v1.7H40.66z"/><path class="cls-6" d="M57.86 31.15v1.7l-2.69-1.07v-1.71l2.69 1.08z"/><path d="M70.78 10.05l6.08 75.62-3.3.28-9.56-.19-6.2-76.51 9.49-1.14 2.57.79a1.34 1.34 0 01.92 1.15z" fill="#eabe1f"/><path d="M73.56 86l-12.8 1.41-6.1-75.87a2 2 0 011.81-2.13l10.82-1.3z" fill="#ffe12b"/><path class="cls-4" transform="rotate(-4.6 69.179 47.168)" d="M68.5 8.09h1.28v78.09H68.5z"/><path d="M88.36 19.54l5.32 66-2.89.25-12.13.21-5.38-66.85 12-1.31 2.24.69a1.14 1.14 0 01.84 1.01z" fill="#ca2b28"/><path d="M90.79 85.82l-14.93 1.54-5.33-66.25a1.73 1.73 0 011.58-1.86l13.21-1.41z" fill="#ff393a"/><path class="cls-4" transform="rotate(-4.6 86.94 51.996)" d="M86.38 17.82h1.12v68.19h-1.12z"/><path d="M114.24 8.5v78.85h-3.44L95.64 86V6.2h15.16l2.59 1a1.35 1.35 0 01.85 1.3z" fill="#cc6916"/><path d="M94.17 6.2h16.63v81.16H92.2V8.18a2 2 0 011.97-1.98z" fill="#fc891f"/><path style="mix-blend-mode:overlay" opacity=".2" fill="#fff" d="M108.8 6.2h1.33v81.16h-1.33z"/><path class="cls-5" d="M92.2 9.36h18.6v2.18H92.2z"/><path class="cls-6" d="M114.25 10.74v2.18l-3.45-1.38V9.36l3.45 1.38z"/><path class="cls-5" d="M92.2 13.93h18.6v2.18H92.2z"/><path class="cls-6" d="M114.25 15.3v2.18l-3.45-1.37v-2.19l3.45 1.38z"/></g></g></g></svg>