<svg width="847" height="875" fill="none" xmlns="http://www.w3.org/2000/svg"><g clip-path="url(#clip0_51_94)"><path d="M780.827 865.226L755.268 875 0 587.788l25.56-9.79 755.267 287.228z" fill="#000" opacity=".16"/><path d="M77.329 37.614l21.918-8.384-1.577 365.54-21.895 8.384 1.554-365.54z" fill="#734126"/><path d="M75.775 403.154l21.895-8.384 721.961 274.461-21.895 8.384L75.775 403.154z" fill="#77655C"/><path d="M77.329 37.614l21.918-8.384 721.961 274.46-21.895 8.385L77.329 37.614z" fill="#72553C"/><path d="M799.313 312.075l21.895-8.385-1.577 365.541-21.895 8.384 1.577-365.54z" fill="#664C36"/><path d="M51.723 8.384l773.382 293.993-1.717 404.468L49.96 412.852 51.723 8.384zm746.013 669.231l1.577-365.54L77.329 37.614 75.775 403.17l721.961 274.445z" fill="#AF795D"/><path d="M825.105 302.377L847 293.993l-1.74 404.468-21.895 8.384 1.74-404.468z" fill="#D69C83"/><path d="M51.723 8.384L73.618 0 847 293.993l-21.895 8.384L51.723 8.384z" fill="#D69C83"/><path d="M800.774 310.41l-2.69 356.744L87.859 397.473 93.124 43.28l707.65 267.13z" fill="#2A5919"/><path d="M755.731 682.166l43.652-16.723-.047 8.736-43.651 16.722.046-8.735z" fill="#AF795D"/><path d="M43.581 414.47l44.742-16.997 711.06 267.97-43.652 16.723L43.581 414.47z" fill="#734126"/><path d="M755.731 682.166l-.046 8.735-712.15-267.695.047-8.736L755.73 682.166z" fill="#AF795D"/><mask id="mask0_51_94" style="mask-type:luminance" maskUnits="userSpaceOnUse" x="509" y="575" width="46" height="18"><path d="M511.359 576.105l42.979 16.295a3.399 3.399 0 00-1.191-.13 3.127 3.127 0 00-1.129.282l-42.909-16.31c.32-.156.699-.251 1.096-.275a3.16 3.16 0 011.154.138z" fill="#fff"/></mask><g mask="url(#mask0_51_94)"><path d="M552.018 592.537l-42.909-16.31a2.93 2.93 0 011.13-.29 3.2 3.2 0 011.19.152l42.909 16.311a3.399 3.399 0 00-1.191-.13 3.127 3.127 0 00-1.129.282v-.015z" fill="#C0E1E2"/></g><mask id="mask1_51_94" style="mask-type:luminance" maskUnits="userSpaceOnUse" x="505" y="576" width="48" height="22"><path d="M549.699 597.485l-42.932-16.31a1.87 1.87 0 01-.721-.587 1.08 1.08 0 01-.207-.742c.059-.723.378-1.427.93-2.053.553-.627 1.323-1.158 2.248-1.551l43.001 16.295c-.917.393-1.681.922-2.229 1.546s-.865 1.323-.925 2.043c-.045.254.008.512.153.75.146.237.381.447.682.609z" fill="#fff"/></mask><g mask="url(#mask1_51_94)"><path d="M549.699 597.485l-42.932-16.31a1.87 1.87 0 01-.721-.587 1.08 1.08 0 01-.207-.742c.059-.723.378-1.427.93-2.053.553-.627 1.323-1.158 2.248-1.551l43.001 16.295c-.917.393-1.681.922-2.229 1.546s-.865 1.323-.925 2.043c-.031.257.038.515.201.75.162.235.412.44.727.594l-.093.015z" fill="#C0E1E2"/></g><path d="M552.018 592.537c1.74-.672 3.155-.137 3.178 1.191-.06.72-.377 1.419-.925 2.043-.548.624-1.312 1.153-2.23 1.546-1.762.672-3.177.137-3.177-1.191.06-.72.377-1.419.925-2.043.548-.624 1.312-1.153 2.229-1.546z" fill="#94AEAF"/><mask id="mask2_51_94" style="mask-type:luminance" maskUnits="userSpaceOnUse" x="474" y="550" width="46" height="18"><path d="M477.032 550.952l42.932 16.295a3.422 3.422 0 00-1.191-.129 3.122 3.122 0 00-1.128.282l-42.863-16.31c.32-.156.699-.251 1.096-.276.396-.024.796.024 1.154.138z" fill="#fff"/></mask><g mask="url(#mask2_51_94)"><path d="M517.714 567.4l-42.932-16.31a2.926 2.926 0 011.129-.29c.411-.024.824.029 1.19.152l42.933 16.295a3.422 3.422 0 00-1.191-.129 3.127 3.127 0 00-1.129.282z" fill="#F2AFCD"/></g><mask id="mask3_51_94" style="mask-type:luminance" maskUnits="userSpaceOnUse" x="471" y="551" width="47" height="22"><path d="M515.464 572.333l-42.909-16.31a1.879 1.879 0 01-.721-.587 1.084 1.084 0 01-.206-.742c.056-.722.372-1.425.92-2.051.548-.627 1.314-1.159 2.234-1.553l42.932 16.31c-.921.391-1.69.92-2.242 1.544-.552.623-.873 1.324-.935 2.045a1.08 1.08 0 00.2.75c.163.235.413.44.727.594z" fill="#fff"/></mask><g mask="url(#mask3_51_94)"><path d="M515.464 572.333l-42.909-16.31a1.879 1.879 0 01-.721-.587 1.084 1.084 0 01-.206-.742c.056-.722.372-1.425.92-2.051.548-.627 1.314-1.159 2.234-1.553l42.932 16.31c-.921.391-1.69.92-2.242 1.544-.552.623-.873 1.324-.935 2.045a1.08 1.08 0 00.2.75c.163.235.413.44.727.594z" fill="#F2AFCD"/></g><path d="M517.714 567.4c1.74-.672 3.155-.137 3.155 1.191-.061.72-.378 1.419-.926 2.043-.548.624-1.311 1.153-2.229 1.546-1.739.672-3.154.137-3.177-1.191.062-.721.383-1.422.935-2.045.552-.624 1.321-1.153 2.242-1.544z" fill="#FFE1F0"/><mask id="mask4_51_94" style="mask-type:luminance" maskUnits="userSpaceOnUse" x="79" y="405" width="20" height="7"><path d="M96.07 405.506l-16.468 6.261a3.2 3.2 0 011.19-.152c.41.024.802.125 1.13.29l16.467-6.262a2.927 2.927 0 00-1.13-.289 3.156 3.156 0 00-1.19.152z" fill="#fff"/></mask><g mask="url(#mask4_51_94)"><path d="M81.852 411.905l16.468-6.262a2.927 2.927 0 00-1.13-.289 3.156 3.156 0 00-1.19.152l-16.468 6.261a3.2 3.2 0 011.19-.152c.41.024.802.125 1.13.29z" fill="#FAFFFF"/></g><mask id="mask5_51_94" style="mask-type:luminance" maskUnits="userSpaceOnUse" x="81" y="405" width="21" height="12"><path d="M84.102 416.914l16.467-6.261c.307-.155.551-.357.709-.589.158-.232.225-.487.196-.74-.057-.722-.372-1.425-.92-2.051-.548-.627-1.314-1.159-2.234-1.553l-16.468 6.261c.92.394 1.686.926 2.234 1.553.548.626.864 1.329.92 2.051.03.254-.038.508-.196.74a1.847 1.847 0 01-.708.589z" fill="#fff"/></mask><g mask="url(#mask5_51_94)"><path d="M84.102 416.914l16.467-6.261c.307-.155.551-.357.709-.589.158-.232.225-.487.196-.74-.057-.722-.372-1.425-.92-2.051-.548-.627-1.314-1.159-2.234-1.553l-16.468 6.261c.92.394 1.686.926 2.234 1.553.548.626.864 1.329.92 2.051.03.254-.038.508-.196.74a1.847 1.847 0 01-.708.589z" fill="#FAFFFF"/></g><path d="M81.852 411.905c-1.74-.657-3.155-.122-3.178 1.191.06.723.378 1.427.93 2.054.553.626 1.323 1.158 2.248 1.55 1.74.657 3.154.122 3.154-1.191-.056-.722-.372-1.425-.92-2.051-.548-.627-1.314-1.159-2.234-1.553z" fill="#E5E5E5"/></g><defs><clipPath id="clip0_51_94"><path fill="#fff" d="M0 0h847v875H0z"/></clipPath></defs></svg>